<mxfile host="app.diagrams.net" modified="2022-09-23T02:18:58.590Z" agent="5.0 (Macintosh; Intel Mac OS X 10_14_1) AppleWebKit/537.36 (KHTML, like Gecko) Chrome/105.0.0.0 Safari/537.36" etag="ANBchuvqNwR7acJkuyy6" version="20.3.0" type="github" pages="2">
  <diagram id="lbchFRU-Mi7troICPyIK" name="第 1 页">
    <mxGraphModel dx="2871" dy="1078" grid="1" gridSize="10" guides="1" tooltips="1" connect="1" arrows="1" fold="1" page="1" pageScale="1" pageWidth="827" pageHeight="1169" math="0" shadow="0">
      <root>
        <mxCell id="0" />
        <mxCell id="1" parent="0" />
        <mxCell id="nt_aSUkmN2T9LPsWKvxq-158" value="&lt;font style=&quot;font-size: 15px;&quot; face=&quot;Times New Roman&quot;&gt;[&lt;i&gt;C&lt;/i&gt;&lt;sub&gt;in&amp;nbsp;&lt;/sub&gt;&lt;/font&gt;&lt;span style=&quot;font-family: &amp;quot;Times New Roman&amp;quot;; font-size: 15px;&quot;&gt;* &lt;i&gt;r&lt;/i&gt;]&lt;/span&gt;" style="text;html=1;strokeColor=none;fillColor=none;align=center;verticalAlign=middle;whiteSpace=wrap;rounded=0;fontSize=20;" vertex="1" parent="1">
          <mxGeometry x="727.5" y="747.5" width="105" height="30" as="geometry" />
        </mxCell>
        <mxCell id="nt_aSUkmN2T9LPsWKvxq-159" value="&lt;font style=&quot;font-size: 15px;&quot; face=&quot;Times New Roman&quot;&gt;[&lt;i&gt;C&lt;/i&gt;&lt;sub&gt;in&amp;nbsp;&lt;/sub&gt;&lt;/font&gt;&lt;span style=&quot;font-family: &amp;quot;Times New Roman&amp;quot;; font-size: 15px;&quot;&gt;* &lt;i&gt;r&lt;/i&gt;]&lt;/span&gt;" style="text;html=1;strokeColor=none;fillColor=none;align=center;verticalAlign=middle;whiteSpace=wrap;rounded=0;fontSize=20;" vertex="1" parent="1">
          <mxGeometry x="867.5" y="747.5" width="105" height="30" as="geometry" />
        </mxCell>
        <mxCell id="nt_aSUkmN2T9LPsWKvxq-160" value="&lt;font style=&quot;font-size: 15px;&quot; face=&quot;Times New Roman&quot;&gt;[&lt;i&gt;C&lt;/i&gt;&lt;sub&gt;in&amp;nbsp;&lt;/sub&gt;&lt;/font&gt;&lt;span style=&quot;font-family: &amp;quot;Times New Roman&amp;quot;; font-size: 15px;&quot;&gt;* &lt;i&gt;r&lt;/i&gt;]&lt;/span&gt;" style="text;html=1;strokeColor=none;fillColor=none;align=center;verticalAlign=middle;whiteSpace=wrap;rounded=0;fontSize=20;" vertex="1" parent="1">
          <mxGeometry x="1057.5" y="747.5" width="105" height="30" as="geometry" />
        </mxCell>
        <mxCell id="nt_aSUkmN2T9LPsWKvxq-161" value="&lt;font style=&quot;font-size: 15px;&quot; face=&quot;Times New Roman&quot;&gt;[&lt;i&gt;C&lt;/i&gt;&lt;sub&gt;in&amp;nbsp;&lt;/sub&gt;&lt;/font&gt;&lt;span style=&quot;font-family: &amp;quot;Times New Roman&amp;quot;; font-size: 15px;&quot;&gt;* &lt;i&gt;r&lt;/i&gt;]&lt;/span&gt;" style="text;html=1;strokeColor=none;fillColor=none;align=center;verticalAlign=middle;whiteSpace=wrap;rounded=0;fontSize=20;" vertex="1" parent="1">
          <mxGeometry x="1197.5" y="747.5" width="105" height="30" as="geometry" />
        </mxCell>
        <mxCell id="nt_aSUkmN2T9LPsWKvxq-148" value="" style="shape=cube;whiteSpace=wrap;html=1;boundedLbl=1;backgroundOutline=1;darkOpacity=0.05;darkOpacity2=0.1;size=20;" vertex="1" parent="1">
          <mxGeometry x="671.5" y="880" width="50" height="100" as="geometry" />
        </mxCell>
        <mxCell id="nt_aSUkmN2T9LPsWKvxq-147" value="" style="shape=cube;whiteSpace=wrap;html=1;boundedLbl=1;backgroundOutline=1;darkOpacity=0.05;darkOpacity2=0.1;" vertex="1" parent="1">
          <mxGeometry x="1247.5" y="672.5" width="50" height="80" as="geometry" />
        </mxCell>
        <mxCell id="nt_aSUkmN2T9LPsWKvxq-146" value="" style="shape=cube;whiteSpace=wrap;html=1;boundedLbl=1;backgroundOutline=1;darkOpacity=0.05;darkOpacity2=0.1;" vertex="1" parent="1">
          <mxGeometry x="1107.5" y="672.5" width="50" height="80" as="geometry" />
        </mxCell>
        <mxCell id="nt_aSUkmN2T9LPsWKvxq-145" value="" style="shape=cube;whiteSpace=wrap;html=1;boundedLbl=1;backgroundOutline=1;darkOpacity=0.05;darkOpacity2=0.1;" vertex="1" parent="1">
          <mxGeometry x="917.5" y="672.5" width="50" height="80" as="geometry" />
        </mxCell>
        <mxCell id="nt_aSUkmN2T9LPsWKvxq-144" value="" style="shape=cube;whiteSpace=wrap;html=1;boundedLbl=1;backgroundOutline=1;darkOpacity=0.05;darkOpacity2=0.1;" vertex="1" parent="1">
          <mxGeometry x="777.5" y="672.5" width="50" height="80" as="geometry" />
        </mxCell>
        <mxCell id="nt_aSUkmN2T9LPsWKvxq-143" value="" style="shape=cube;whiteSpace=wrap;html=1;boundedLbl=1;backgroundOutline=1;darkOpacity=0.05;darkOpacity2=0.1;" vertex="1" parent="1">
          <mxGeometry x="637.5" y="672.5" width="50" height="80" as="geometry" />
        </mxCell>
        <mxCell id="nt_aSUkmN2T9LPsWKvxq-142" value="" style="shape=cube;whiteSpace=wrap;html=1;boundedLbl=1;backgroundOutline=1;darkOpacity=0.05;darkOpacity2=0.1;" vertex="1" parent="1">
          <mxGeometry x="117.5" y="672.5" width="50" height="80" as="geometry" />
        </mxCell>
        <mxCell id="nt_aSUkmN2T9LPsWKvxq-141" value="" style="shape=cube;whiteSpace=wrap;html=1;boundedLbl=1;backgroundOutline=1;darkOpacity=0.05;darkOpacity2=0.1;" vertex="1" parent="1">
          <mxGeometry x="257.5" y="672.5" width="50" height="80" as="geometry" />
        </mxCell>
        <mxCell id="nt_aSUkmN2T9LPsWKvxq-140" value="" style="shape=cube;whiteSpace=wrap;html=1;boundedLbl=1;backgroundOutline=1;darkOpacity=0.05;darkOpacity2=0.1;" vertex="1" parent="1">
          <mxGeometry x="397.5" y="672.5" width="50" height="80" as="geometry" />
        </mxCell>
        <mxCell id="nt_aSUkmN2T9LPsWKvxq-138" value="" style="shape=cube;whiteSpace=wrap;html=1;boundedLbl=1;backgroundOutline=1;darkOpacity=0.05;darkOpacity2=0.1;size=30;" vertex="1" parent="1">
          <mxGeometry x="661.5" y="510" width="60" height="110" as="geometry" />
        </mxCell>
        <mxCell id="nt_aSUkmN2T9LPsWKvxq-2" value="" style="shape=cube;whiteSpace=wrap;html=1;boundedLbl=1;backgroundOutline=1;darkOpacity=0.05;darkOpacity2=0.1;" vertex="1" parent="1">
          <mxGeometry x="240" y="160" width="80" height="80" as="geometry" />
        </mxCell>
        <mxCell id="nt_aSUkmN2T9LPsWKvxq-8" value="&lt;font style=&quot;font-size: 20px;&quot;&gt;. . . . . .&lt;/font&gt;" style="text;html=1;strokeColor=none;fillColor=none;align=center;verticalAlign=middle;whiteSpace=wrap;rounded=0;" vertex="1" parent="1">
          <mxGeometry x="350" y="185" width="110" height="30" as="geometry" />
        </mxCell>
        <mxCell id="nt_aSUkmN2T9LPsWKvxq-9" value="&lt;font style=&quot;font-size: 15px;&quot; face=&quot;Times New Roman&quot;&gt;&lt;i&gt;K&lt;/i&gt;&lt;sub&gt;0&lt;/sub&gt;&lt;/font&gt;" style="text;html=1;strokeColor=none;fillColor=none;align=center;verticalAlign=middle;whiteSpace=wrap;rounded=0;fontSize=20;" vertex="1" parent="1">
          <mxGeometry x="210" y="220" width="60" height="30" as="geometry" />
        </mxCell>
        <mxCell id="nt_aSUkmN2T9LPsWKvxq-10" value="&lt;font style=&quot;font-size: 15px;&quot; face=&quot;Times New Roman&quot;&gt;&lt;i&gt;K&lt;/i&gt;&lt;sub&gt;1&lt;/sub&gt;&lt;/font&gt;" style="text;html=1;strokeColor=none;fillColor=none;align=center;verticalAlign=middle;whiteSpace=wrap;rounded=0;fontSize=20;" vertex="1" parent="1">
          <mxGeometry x="200" y="180" width="60" height="30" as="geometry" />
        </mxCell>
        <mxCell id="nt_aSUkmN2T9LPsWKvxq-11" value="&lt;font style=&quot;font-size: 15px;&quot; face=&quot;Times New Roman&quot;&gt;&lt;i&gt;C&lt;/i&gt;&lt;sub&gt;in&lt;/sub&gt;&lt;/font&gt;" style="text;html=1;strokeColor=none;fillColor=none;align=center;verticalAlign=middle;whiteSpace=wrap;rounded=0;fontSize=20;" vertex="1" parent="1">
          <mxGeometry x="260" y="235" width="60" height="30" as="geometry" />
        </mxCell>
        <mxCell id="nt_aSUkmN2T9LPsWKvxq-12" value="&lt;font style=&quot;font-size: 15px;&quot; face=&quot;Times New Roman&quot;&gt;&lt;i&gt;C&lt;/i&gt;&lt;sub&gt;out&lt;/sub&gt;&lt;/font&gt;" style="text;html=1;strokeColor=none;fillColor=none;align=center;verticalAlign=middle;whiteSpace=wrap;rounded=0;fontSize=20;" vertex="1" parent="1">
          <mxGeometry x="375" y="285" width="60" height="30" as="geometry" />
        </mxCell>
        <mxCell id="nt_aSUkmN2T9LPsWKvxq-13" value="" style="shape=cube;whiteSpace=wrap;html=1;boundedLbl=1;backgroundOutline=1;darkOpacity=0.05;darkOpacity2=0.1;" vertex="1" parent="1">
          <mxGeometry x="100" y="160" width="80" height="80" as="geometry" />
        </mxCell>
        <mxCell id="nt_aSUkmN2T9LPsWKvxq-14" value="&lt;font style=&quot;font-size: 15px;&quot; face=&quot;Times New Roman&quot;&gt;&lt;i&gt;K&lt;/i&gt;&lt;sub&gt;0&lt;/sub&gt;&lt;/font&gt;" style="text;html=1;strokeColor=none;fillColor=none;align=center;verticalAlign=middle;whiteSpace=wrap;rounded=0;fontSize=20;" vertex="1" parent="1">
          <mxGeometry x="70" y="220" width="60" height="30" as="geometry" />
        </mxCell>
        <mxCell id="nt_aSUkmN2T9LPsWKvxq-15" value="&lt;font style=&quot;font-size: 15px;&quot; face=&quot;Times New Roman&quot;&gt;&lt;i&gt;K&lt;/i&gt;&lt;sub&gt;1&lt;/sub&gt;&lt;/font&gt;" style="text;html=1;strokeColor=none;fillColor=none;align=center;verticalAlign=middle;whiteSpace=wrap;rounded=0;fontSize=20;" vertex="1" parent="1">
          <mxGeometry x="60" y="180" width="60" height="30" as="geometry" />
        </mxCell>
        <mxCell id="nt_aSUkmN2T9LPsWKvxq-16" value="&lt;font style=&quot;font-size: 15px;&quot; face=&quot;Times New Roman&quot;&gt;&lt;i&gt;C&lt;/i&gt;&lt;sub&gt;in&lt;/sub&gt;&lt;/font&gt;" style="text;html=1;strokeColor=none;fillColor=none;align=center;verticalAlign=middle;whiteSpace=wrap;rounded=0;fontSize=20;" vertex="1" parent="1">
          <mxGeometry x="120" y="235" width="60" height="30" as="geometry" />
        </mxCell>
        <mxCell id="nt_aSUkmN2T9LPsWKvxq-17" value="" style="shape=cube;whiteSpace=wrap;html=1;boundedLbl=1;backgroundOutline=1;darkOpacity=0.05;darkOpacity2=0.1;" vertex="1" parent="1">
          <mxGeometry x="-40" y="160" width="80" height="80" as="geometry" />
        </mxCell>
        <mxCell id="nt_aSUkmN2T9LPsWKvxq-18" value="&lt;font style=&quot;font-size: 15px;&quot; face=&quot;Times New Roman&quot;&gt;&lt;i&gt;K&lt;/i&gt;&lt;sub&gt;0&lt;/sub&gt;&lt;/font&gt;" style="text;html=1;strokeColor=none;fillColor=none;align=center;verticalAlign=middle;whiteSpace=wrap;rounded=0;fontSize=20;" vertex="1" parent="1">
          <mxGeometry x="-70" y="220" width="60" height="30" as="geometry" />
        </mxCell>
        <mxCell id="nt_aSUkmN2T9LPsWKvxq-19" value="&lt;font style=&quot;font-size: 15px;&quot; face=&quot;Times New Roman&quot;&gt;&lt;i&gt;K&lt;/i&gt;&lt;sub&gt;1&lt;/sub&gt;&lt;/font&gt;" style="text;html=1;strokeColor=none;fillColor=none;align=center;verticalAlign=middle;whiteSpace=wrap;rounded=0;fontSize=20;" vertex="1" parent="1">
          <mxGeometry x="-80" y="180" width="60" height="30" as="geometry" />
        </mxCell>
        <mxCell id="nt_aSUkmN2T9LPsWKvxq-20" value="&lt;font style=&quot;font-size: 15px;&quot; face=&quot;Times New Roman&quot;&gt;&lt;i&gt;C&lt;/i&gt;&lt;sub&gt;in&lt;/sub&gt;&lt;/font&gt;" style="text;html=1;strokeColor=none;fillColor=none;align=center;verticalAlign=middle;whiteSpace=wrap;rounded=0;fontSize=20;" vertex="1" parent="1">
          <mxGeometry x="-20" y="235" width="60" height="30" as="geometry" />
        </mxCell>
        <mxCell id="nt_aSUkmN2T9LPsWKvxq-21" value="" style="shape=cube;whiteSpace=wrap;html=1;boundedLbl=1;backgroundOutline=1;darkOpacity=0.05;darkOpacity2=0.1;" vertex="1" parent="1">
          <mxGeometry x="760" y="160" width="80" height="80" as="geometry" />
        </mxCell>
        <mxCell id="nt_aSUkmN2T9LPsWKvxq-22" value="&lt;font style=&quot;font-size: 15px;&quot; face=&quot;Times New Roman&quot;&gt;&lt;i&gt;K&lt;/i&gt;&lt;sub&gt;0&lt;/sub&gt;&lt;/font&gt;" style="text;html=1;strokeColor=none;fillColor=none;align=center;verticalAlign=middle;whiteSpace=wrap;rounded=0;fontSize=20;" vertex="1" parent="1">
          <mxGeometry x="730" y="220" width="60" height="30" as="geometry" />
        </mxCell>
        <mxCell id="nt_aSUkmN2T9LPsWKvxq-23" value="&lt;font style=&quot;font-size: 15px;&quot; face=&quot;Times New Roman&quot;&gt;&lt;i&gt;K&lt;/i&gt;&lt;sub&gt;1&lt;/sub&gt;&lt;/font&gt;" style="text;html=1;strokeColor=none;fillColor=none;align=center;verticalAlign=middle;whiteSpace=wrap;rounded=0;fontSize=20;" vertex="1" parent="1">
          <mxGeometry x="720" y="180" width="60" height="30" as="geometry" />
        </mxCell>
        <mxCell id="nt_aSUkmN2T9LPsWKvxq-24" value="&lt;font style=&quot;font-size: 15px;&quot; face=&quot;Times New Roman&quot;&gt;&lt;i&gt;C&lt;/i&gt;&lt;sub&gt;in&lt;/sub&gt;&lt;/font&gt;" style="text;html=1;strokeColor=none;fillColor=none;align=center;verticalAlign=middle;whiteSpace=wrap;rounded=0;fontSize=20;" vertex="1" parent="1">
          <mxGeometry x="780" y="235" width="60" height="30" as="geometry" />
        </mxCell>
        <mxCell id="nt_aSUkmN2T9LPsWKvxq-25" value="" style="shape=cube;whiteSpace=wrap;html=1;boundedLbl=1;backgroundOutline=1;darkOpacity=0.05;darkOpacity2=0.1;" vertex="1" parent="1">
          <mxGeometry x="620" y="160" width="80" height="80" as="geometry" />
        </mxCell>
        <mxCell id="nt_aSUkmN2T9LPsWKvxq-26" value="&lt;font style=&quot;font-size: 15px;&quot; face=&quot;Times New Roman&quot;&gt;&lt;i&gt;K&lt;/i&gt;&lt;sub&gt;0&lt;/sub&gt;&lt;/font&gt;" style="text;html=1;strokeColor=none;fillColor=none;align=center;verticalAlign=middle;whiteSpace=wrap;rounded=0;fontSize=20;" vertex="1" parent="1">
          <mxGeometry x="590" y="220" width="60" height="30" as="geometry" />
        </mxCell>
        <mxCell id="nt_aSUkmN2T9LPsWKvxq-27" value="&lt;font style=&quot;font-size: 15px;&quot; face=&quot;Times New Roman&quot;&gt;&lt;i&gt;K&lt;/i&gt;&lt;sub&gt;1&lt;/sub&gt;&lt;/font&gt;" style="text;html=1;strokeColor=none;fillColor=none;align=center;verticalAlign=middle;whiteSpace=wrap;rounded=0;fontSize=20;" vertex="1" parent="1">
          <mxGeometry x="580" y="180" width="60" height="30" as="geometry" />
        </mxCell>
        <mxCell id="nt_aSUkmN2T9LPsWKvxq-28" value="&lt;font style=&quot;font-size: 15px;&quot; face=&quot;Times New Roman&quot;&gt;&lt;i&gt;C&lt;/i&gt;&lt;sub&gt;in&lt;/sub&gt;&lt;/font&gt;" style="text;html=1;strokeColor=none;fillColor=none;align=center;verticalAlign=middle;whiteSpace=wrap;rounded=0;fontSize=20;" vertex="1" parent="1">
          <mxGeometry x="640" y="235" width="60" height="30" as="geometry" />
        </mxCell>
        <mxCell id="nt_aSUkmN2T9LPsWKvxq-29" value="" style="shape=cube;whiteSpace=wrap;html=1;boundedLbl=1;backgroundOutline=1;darkOpacity=0.05;darkOpacity2=0.1;" vertex="1" parent="1">
          <mxGeometry x="480" y="160" width="80" height="80" as="geometry" />
        </mxCell>
        <mxCell id="nt_aSUkmN2T9LPsWKvxq-30" value="&lt;font style=&quot;font-size: 15px;&quot; face=&quot;Times New Roman&quot;&gt;&lt;i&gt;K&lt;/i&gt;&lt;sub&gt;0&lt;/sub&gt;&lt;/font&gt;" style="text;html=1;strokeColor=none;fillColor=none;align=center;verticalAlign=middle;whiteSpace=wrap;rounded=0;fontSize=20;" vertex="1" parent="1">
          <mxGeometry x="450" y="220" width="60" height="30" as="geometry" />
        </mxCell>
        <mxCell id="nt_aSUkmN2T9LPsWKvxq-31" value="&lt;font style=&quot;font-size: 15px;&quot; face=&quot;Times New Roman&quot;&gt;&lt;i&gt;K&lt;/i&gt;&lt;sub&gt;1&lt;/sub&gt;&lt;/font&gt;" style="text;html=1;strokeColor=none;fillColor=none;align=center;verticalAlign=middle;whiteSpace=wrap;rounded=0;fontSize=20;" vertex="1" parent="1">
          <mxGeometry x="440" y="180" width="60" height="30" as="geometry" />
        </mxCell>
        <mxCell id="nt_aSUkmN2T9LPsWKvxq-32" value="&lt;font style=&quot;font-size: 15px;&quot; face=&quot;Times New Roman&quot;&gt;&lt;i&gt;C&lt;/i&gt;&lt;sub&gt;in&lt;/sub&gt;&lt;/font&gt;" style="text;html=1;strokeColor=none;fillColor=none;align=center;verticalAlign=middle;whiteSpace=wrap;rounded=0;fontSize=20;" vertex="1" parent="1">
          <mxGeometry x="500" y="235" width="60" height="30" as="geometry" />
        </mxCell>
        <mxCell id="nt_aSUkmN2T9LPsWKvxq-33" value="" style="shape=curlyBracket;whiteSpace=wrap;html=1;rounded=1;flipH=1;fontFamily=Times New Roman;fontSize=15;direction=north;" vertex="1" parent="1">
          <mxGeometry y="270" width="800" height="20" as="geometry" />
        </mxCell>
        <mxCell id="nt_aSUkmN2T9LPsWKvxq-34" value="" style="shape=cube;whiteSpace=wrap;html=1;boundedLbl=1;backgroundOutline=1;darkOpacity=0.05;darkOpacity2=0.1;size=30;" vertex="1" parent="1">
          <mxGeometry x="355" y="10" width="90" height="110" as="geometry" />
        </mxCell>
        <mxCell id="nt_aSUkmN2T9LPsWKvxq-35" value="&lt;font style=&quot;font-size: 15px;&quot; face=&quot;Times New Roman&quot;&gt;&lt;i&gt;C&lt;/i&gt;&lt;sub&gt;in&lt;/sub&gt;&lt;/font&gt;" style="text;html=1;strokeColor=none;fillColor=none;align=center;verticalAlign=middle;whiteSpace=wrap;rounded=0;fontSize=20;" vertex="1" parent="1">
          <mxGeometry x="394" y="115" width="60" height="30" as="geometry" />
        </mxCell>
        <mxCell id="nt_aSUkmN2T9LPsWKvxq-36" value="&lt;font style=&quot;font-size: 15px;&quot; face=&quot;Times New Roman&quot;&gt;&lt;i&gt;H&lt;/i&gt;&lt;sub&gt;in&lt;/sub&gt;&lt;/font&gt;" style="text;html=1;strokeColor=none;fillColor=none;align=center;verticalAlign=middle;whiteSpace=wrap;rounded=0;fontSize=20;" vertex="1" parent="1">
          <mxGeometry x="330" y="95" width="60" height="30" as="geometry" />
        </mxCell>
        <mxCell id="nt_aSUkmN2T9LPsWKvxq-37" value="&lt;font style=&quot;font-size: 15px;&quot; face=&quot;Times New Roman&quot;&gt;&lt;i&gt;W&lt;/i&gt;&lt;sub&gt;in&lt;/sub&gt;&lt;/font&gt;" style="text;html=1;strokeColor=none;fillColor=none;align=center;verticalAlign=middle;whiteSpace=wrap;rounded=0;fontSize=20;" vertex="1" parent="1">
          <mxGeometry x="310" y="40" width="60" height="30" as="geometry" />
        </mxCell>
        <mxCell id="nt_aSUkmN2T9LPsWKvxq-38" value="&lt;font style=&quot;font-size: 20px;&quot; face=&quot;Times New Roman&quot;&gt;x&lt;/font&gt;" style="text;html=1;strokeColor=none;fillColor=none;align=center;verticalAlign=middle;whiteSpace=wrap;rounded=0;fontSize=20;" vertex="1" parent="1">
          <mxGeometry x="385" y="65" width="60" height="30" as="geometry" />
        </mxCell>
        <mxCell id="nt_aSUkmN2T9LPsWKvxq-39" value="" style="shape=cube;whiteSpace=wrap;html=1;boundedLbl=1;backgroundOutline=1;darkOpacity=0.05;darkOpacity2=0.1;size=20;" vertex="1" parent="1">
          <mxGeometry x="359" y="340" width="90" height="100" as="geometry" />
        </mxCell>
        <mxCell id="nt_aSUkmN2T9LPsWKvxq-42" value="&lt;font style=&quot;font-size: 15px;&quot; face=&quot;Times New Roman&quot;&gt;&lt;i&gt;C&lt;/i&gt;&lt;sub&gt;out&lt;/sub&gt;&lt;/font&gt;" style="text;html=1;strokeColor=none;fillColor=none;align=center;verticalAlign=middle;whiteSpace=wrap;rounded=0;fontSize=20;" vertex="1" parent="1">
          <mxGeometry x="390" y="435" width="60" height="30" as="geometry" />
        </mxCell>
        <mxCell id="nt_aSUkmN2T9LPsWKvxq-43" value="&lt;font style=&quot;font-size: 15px;&quot; face=&quot;Times New Roman&quot;&gt;&lt;i&gt;W&lt;/i&gt;&lt;sub&gt;out&lt;/sub&gt;&lt;/font&gt;" style="text;html=1;strokeColor=none;fillColor=none;align=center;verticalAlign=middle;whiteSpace=wrap;rounded=0;fontSize=20;" vertex="1" parent="1">
          <mxGeometry x="310" y="370" width="60" height="30" as="geometry" />
        </mxCell>
        <mxCell id="nt_aSUkmN2T9LPsWKvxq-44" value="&lt;font style=&quot;font-size: 15px;&quot; face=&quot;Times New Roman&quot;&gt;&lt;i&gt;H&lt;/i&gt;&lt;sub&gt;out&lt;/sub&gt;&lt;/font&gt;" style="text;html=1;strokeColor=none;fillColor=none;align=center;verticalAlign=middle;whiteSpace=wrap;rounded=0;fontSize=20;" vertex="1" parent="1">
          <mxGeometry x="330" y="425" width="60" height="30" as="geometry" />
        </mxCell>
        <mxCell id="nt_aSUkmN2T9LPsWKvxq-45" value="&lt;font style=&quot;font-size: 20px;&quot; face=&quot;Times New Roman&quot;&gt;y&lt;/font&gt;" style="text;html=1;strokeColor=none;fillColor=none;align=center;verticalAlign=middle;whiteSpace=wrap;rounded=0;fontSize=20;" vertex="1" parent="1">
          <mxGeometry x="384" y="385" width="60" height="30" as="geometry" />
        </mxCell>
        <mxCell id="nt_aSUkmN2T9LPsWKvxq-87" value="" style="shape=cube;whiteSpace=wrap;html=1;boundedLbl=1;backgroundOutline=1;darkOpacity=0.05;darkOpacity2=0.1;" vertex="1" parent="1">
          <mxGeometry x="337.5" y="672.5" width="110" height="80" as="geometry" />
        </mxCell>
        <mxCell id="nt_aSUkmN2T9LPsWKvxq-88" value="&lt;font style=&quot;font-size: 20px;&quot;&gt;. . . . . .&lt;/font&gt;" style="text;html=1;strokeColor=none;fillColor=none;align=center;verticalAlign=middle;whiteSpace=wrap;rounded=0;" vertex="1" parent="1">
          <mxGeometry x="447.5" y="697.5" width="110" height="30" as="geometry" />
        </mxCell>
        <mxCell id="nt_aSUkmN2T9LPsWKvxq-89" value="&lt;font style=&quot;font-size: 15px;&quot; face=&quot;Times New Roman&quot;&gt;&lt;i&gt;K&lt;/i&gt;&lt;sub&gt;0&lt;/sub&gt;&lt;/font&gt;" style="text;html=1;strokeColor=none;fillColor=none;align=center;verticalAlign=middle;whiteSpace=wrap;rounded=0;fontSize=20;" vertex="1" parent="1">
          <mxGeometry x="307.5" y="732.5" width="60" height="30" as="geometry" />
        </mxCell>
        <mxCell id="nt_aSUkmN2T9LPsWKvxq-90" value="&lt;font style=&quot;font-size: 15px;&quot; face=&quot;Times New Roman&quot;&gt;&lt;i&gt;K&lt;/i&gt;&lt;sub&gt;1&lt;/sub&gt;&lt;/font&gt;" style="text;html=1;strokeColor=none;fillColor=none;align=center;verticalAlign=middle;whiteSpace=wrap;rounded=0;fontSize=20;" vertex="1" parent="1">
          <mxGeometry x="297.5" y="692.5" width="60" height="30" as="geometry" />
        </mxCell>
        <mxCell id="nt_aSUkmN2T9LPsWKvxq-92" value="&lt;font style=&quot;font-size: 15px;&quot; face=&quot;Times New Roman&quot;&gt;[&lt;i&gt;C&lt;/i&gt;&lt;sub&gt;out&amp;nbsp;&lt;/sub&gt;&lt;/font&gt;&lt;span style=&quot;font-family: &amp;quot;Times New Roman&amp;quot;; font-size: 15px;&quot;&gt;* &lt;i&gt;r&lt;/i&gt;]&lt;/span&gt;" style="text;html=1;strokeColor=none;fillColor=none;align=center;verticalAlign=middle;whiteSpace=wrap;rounded=0;fontSize=20;" vertex="1" parent="1">
          <mxGeometry x="612.5" y="840" width="105" height="30" as="geometry" />
        </mxCell>
        <mxCell id="nt_aSUkmN2T9LPsWKvxq-93" value="" style="shape=cube;whiteSpace=wrap;html=1;boundedLbl=1;backgroundOutline=1;darkOpacity=0.05;darkOpacity2=0.1;" vertex="1" parent="1">
          <mxGeometry x="197.5" y="672.5" width="110" height="80" as="geometry" />
        </mxCell>
        <mxCell id="nt_aSUkmN2T9LPsWKvxq-94" value="&lt;font style=&quot;font-size: 15px;&quot; face=&quot;Times New Roman&quot;&gt;&lt;i&gt;K&lt;/i&gt;&lt;sub&gt;0&lt;/sub&gt;&lt;/font&gt;" style="text;html=1;strokeColor=none;fillColor=none;align=center;verticalAlign=middle;whiteSpace=wrap;rounded=0;fontSize=20;" vertex="1" parent="1">
          <mxGeometry x="167.5" y="732.5" width="60" height="30" as="geometry" />
        </mxCell>
        <mxCell id="nt_aSUkmN2T9LPsWKvxq-95" value="&lt;font style=&quot;font-size: 15px;&quot; face=&quot;Times New Roman&quot;&gt;&lt;i&gt;K&lt;/i&gt;&lt;sub&gt;1&lt;/sub&gt;&lt;/font&gt;" style="text;html=1;strokeColor=none;fillColor=none;align=center;verticalAlign=middle;whiteSpace=wrap;rounded=0;fontSize=20;" vertex="1" parent="1">
          <mxGeometry x="157.5" y="692.5" width="60" height="30" as="geometry" />
        </mxCell>
        <mxCell id="nt_aSUkmN2T9LPsWKvxq-97" value="" style="shape=cube;whiteSpace=wrap;html=1;boundedLbl=1;backgroundOutline=1;darkOpacity=0.05;darkOpacity2=0.1;" vertex="1" parent="1">
          <mxGeometry x="57.5" y="672.5" width="110" height="80" as="geometry" />
        </mxCell>
        <mxCell id="nt_aSUkmN2T9LPsWKvxq-98" value="&lt;font style=&quot;font-size: 15px;&quot; face=&quot;Times New Roman&quot;&gt;&lt;i&gt;K&lt;/i&gt;&lt;sub&gt;0&lt;/sub&gt;&lt;/font&gt;" style="text;html=1;strokeColor=none;fillColor=none;align=center;verticalAlign=middle;whiteSpace=wrap;rounded=0;fontSize=20;" vertex="1" parent="1">
          <mxGeometry x="27.5" y="732.5" width="60" height="30" as="geometry" />
        </mxCell>
        <mxCell id="nt_aSUkmN2T9LPsWKvxq-99" value="&lt;font style=&quot;font-size: 15px;&quot; face=&quot;Times New Roman&quot;&gt;&lt;i&gt;K&lt;/i&gt;&lt;sub&gt;1&lt;/sub&gt;&lt;/font&gt;" style="text;html=1;strokeColor=none;fillColor=none;align=center;verticalAlign=middle;whiteSpace=wrap;rounded=0;fontSize=20;" vertex="1" parent="1">
          <mxGeometry x="17.5" y="692.5" width="60" height="30" as="geometry" />
        </mxCell>
        <mxCell id="nt_aSUkmN2T9LPsWKvxq-101" value="" style="shape=cube;whiteSpace=wrap;html=1;boundedLbl=1;backgroundOutline=1;darkOpacity=0.05;darkOpacity2=0.1;" vertex="1" parent="1">
          <mxGeometry x="887.5" y="672.5" width="80" height="80" as="geometry" />
        </mxCell>
        <mxCell id="nt_aSUkmN2T9LPsWKvxq-102" value="&lt;font style=&quot;font-size: 15px;&quot; face=&quot;Times New Roman&quot;&gt;&lt;i&gt;K&lt;/i&gt;&lt;sub&gt;0&lt;/sub&gt;&lt;/font&gt;" style="text;html=1;strokeColor=none;fillColor=none;align=center;verticalAlign=middle;whiteSpace=wrap;rounded=0;fontSize=20;" vertex="1" parent="1">
          <mxGeometry x="827.5" y="732.5" width="60" height="30" as="geometry" />
        </mxCell>
        <mxCell id="nt_aSUkmN2T9LPsWKvxq-103" value="&lt;font style=&quot;font-size: 15px;&quot; face=&quot;Times New Roman&quot;&gt;&lt;i&gt;K&lt;/i&gt;&lt;sub&gt;1&lt;/sub&gt;&lt;/font&gt;" style="text;html=1;strokeColor=none;fillColor=none;align=center;verticalAlign=middle;whiteSpace=wrap;rounded=0;fontSize=20;" vertex="1" parent="1">
          <mxGeometry x="817.5" y="692.5" width="60" height="30" as="geometry" />
        </mxCell>
        <mxCell id="nt_aSUkmN2T9LPsWKvxq-105" value="" style="shape=cube;whiteSpace=wrap;html=1;boundedLbl=1;backgroundOutline=1;darkOpacity=0.05;darkOpacity2=0.1;" vertex="1" parent="1">
          <mxGeometry x="717.5" y="672.5" width="110" height="80" as="geometry" />
        </mxCell>
        <mxCell id="nt_aSUkmN2T9LPsWKvxq-106" value="&lt;font style=&quot;font-size: 15px;&quot; face=&quot;Times New Roman&quot;&gt;&lt;i&gt;K&lt;/i&gt;&lt;sub&gt;0&lt;/sub&gt;&lt;/font&gt;" style="text;html=1;strokeColor=none;fillColor=none;align=center;verticalAlign=middle;whiteSpace=wrap;rounded=0;fontSize=20;" vertex="1" parent="1">
          <mxGeometry x="687.5" y="732.5" width="60" height="30" as="geometry" />
        </mxCell>
        <mxCell id="nt_aSUkmN2T9LPsWKvxq-107" value="&lt;font style=&quot;font-size: 15px;&quot; face=&quot;Times New Roman&quot;&gt;&lt;i&gt;K&lt;/i&gt;&lt;sub&gt;1&lt;/sub&gt;&lt;/font&gt;" style="text;html=1;strokeColor=none;fillColor=none;align=center;verticalAlign=middle;whiteSpace=wrap;rounded=0;fontSize=20;" vertex="1" parent="1">
          <mxGeometry x="677.5" y="692.5" width="60" height="30" as="geometry" />
        </mxCell>
        <mxCell id="nt_aSUkmN2T9LPsWKvxq-109" value="" style="shape=cube;whiteSpace=wrap;html=1;boundedLbl=1;backgroundOutline=1;darkOpacity=0.05;darkOpacity2=0.1;" vertex="1" parent="1">
          <mxGeometry x="577.5" y="672.5" width="110" height="80" as="geometry" />
        </mxCell>
        <mxCell id="nt_aSUkmN2T9LPsWKvxq-110" value="&lt;font style=&quot;font-size: 15px;&quot; face=&quot;Times New Roman&quot;&gt;&lt;i&gt;K&lt;/i&gt;&lt;sub&gt;0&lt;/sub&gt;&lt;/font&gt;" style="text;html=1;strokeColor=none;fillColor=none;align=center;verticalAlign=middle;whiteSpace=wrap;rounded=0;fontSize=20;" vertex="1" parent="1">
          <mxGeometry x="547.5" y="732.5" width="60" height="30" as="geometry" />
        </mxCell>
        <mxCell id="nt_aSUkmN2T9LPsWKvxq-111" value="&lt;font style=&quot;font-size: 15px;&quot; face=&quot;Times New Roman&quot;&gt;&lt;i&gt;K&lt;/i&gt;&lt;sub&gt;1&lt;/sub&gt;&lt;/font&gt;" style="text;html=1;strokeColor=none;fillColor=none;align=center;verticalAlign=middle;whiteSpace=wrap;rounded=0;fontSize=20;" vertex="1" parent="1">
          <mxGeometry x="537.5" y="692.5" width="60" height="30" as="geometry" />
        </mxCell>
        <mxCell id="nt_aSUkmN2T9LPsWKvxq-113" value="" style="shape=curlyBracket;whiteSpace=wrap;html=1;rounded=1;flipH=1;fontFamily=Times New Roman;fontSize=15;direction=north;" vertex="1" parent="1">
          <mxGeometry x="107.5" y="820" width="1130" height="20" as="geometry" />
        </mxCell>
        <mxCell id="nt_aSUkmN2T9LPsWKvxq-114" value="" style="shape=cube;whiteSpace=wrap;html=1;boundedLbl=1;backgroundOutline=1;darkOpacity=0.05;darkOpacity2=0.1;size=30;" vertex="1" parent="1">
          <mxGeometry x="601.5" y="510" width="126" height="110" as="geometry" />
        </mxCell>
        <mxCell id="nt_aSUkmN2T9LPsWKvxq-116" value="&lt;font style=&quot;font-size: 15px;&quot; face=&quot;Times New Roman&quot;&gt;&lt;i&gt;H&lt;/i&gt;&lt;sub&gt;in&lt;/sub&gt;&lt;/font&gt;" style="text;html=1;strokeColor=none;fillColor=none;align=center;verticalAlign=middle;whiteSpace=wrap;rounded=0;fontSize=20;" vertex="1" parent="1">
          <mxGeometry x="576.5" y="595" width="60" height="30" as="geometry" />
        </mxCell>
        <mxCell id="nt_aSUkmN2T9LPsWKvxq-117" value="&lt;font style=&quot;font-size: 15px;&quot; face=&quot;Times New Roman&quot;&gt;&lt;i&gt;W&lt;/i&gt;&lt;sub&gt;in&lt;/sub&gt;&lt;/font&gt;" style="text;html=1;strokeColor=none;fillColor=none;align=center;verticalAlign=middle;whiteSpace=wrap;rounded=0;fontSize=20;" vertex="1" parent="1">
          <mxGeometry x="556.5" y="540" width="60" height="30" as="geometry" />
        </mxCell>
        <mxCell id="nt_aSUkmN2T9LPsWKvxq-118" value="&lt;font style=&quot;font-size: 20px;&quot; face=&quot;Times New Roman&quot;&gt;x&#39;&lt;/font&gt;" style="text;html=1;strokeColor=none;fillColor=none;align=center;verticalAlign=middle;whiteSpace=wrap;rounded=0;fontSize=20;" vertex="1" parent="1">
          <mxGeometry x="649" y="565" width="60" height="30" as="geometry" />
        </mxCell>
        <mxCell id="nt_aSUkmN2T9LPsWKvxq-119" value="" style="shape=cube;whiteSpace=wrap;html=1;boundedLbl=1;backgroundOutline=1;darkOpacity=0.05;darkOpacity2=0.1;size=20;" vertex="1" parent="1">
          <mxGeometry x="610.5" y="880" width="117" height="100" as="geometry" />
        </mxCell>
        <mxCell id="nt_aSUkmN2T9LPsWKvxq-121" value="&lt;font style=&quot;font-size: 15px;&quot; face=&quot;Times New Roman&quot;&gt;&lt;i&gt;W&lt;/i&gt;&lt;sub&gt;out&lt;/sub&gt;&lt;/font&gt;" style="text;html=1;strokeColor=none;fillColor=none;align=center;verticalAlign=middle;whiteSpace=wrap;rounded=0;fontSize=20;" vertex="1" parent="1">
          <mxGeometry x="561.5" y="910" width="60" height="30" as="geometry" />
        </mxCell>
        <mxCell id="nt_aSUkmN2T9LPsWKvxq-122" value="&lt;font style=&quot;font-size: 15px;&quot; face=&quot;Times New Roman&quot;&gt;&lt;i&gt;H&lt;/i&gt;&lt;sub&gt;out&lt;/sub&gt;&lt;/font&gt;" style="text;html=1;strokeColor=none;fillColor=none;align=center;verticalAlign=middle;whiteSpace=wrap;rounded=0;fontSize=20;" vertex="1" parent="1">
          <mxGeometry x="581.5" y="965" width="60" height="30" as="geometry" />
        </mxCell>
        <mxCell id="nt_aSUkmN2T9LPsWKvxq-123" value="&lt;font style=&quot;font-size: 20px;&quot; face=&quot;Times New Roman&quot;&gt;y&#39;&lt;/font&gt;" style="text;html=1;strokeColor=none;fillColor=none;align=center;verticalAlign=middle;whiteSpace=wrap;rounded=0;fontSize=20;" vertex="1" parent="1">
          <mxGeometry x="644" y="925" width="60" height="30" as="geometry" />
        </mxCell>
        <mxCell id="nt_aSUkmN2T9LPsWKvxq-129" value="" style="shape=cube;whiteSpace=wrap;html=1;boundedLbl=1;backgroundOutline=1;darkOpacity=0.05;darkOpacity2=0.1;" vertex="1" parent="1">
          <mxGeometry x="1187.5" y="672.5" width="110" height="80" as="geometry" />
        </mxCell>
        <mxCell id="nt_aSUkmN2T9LPsWKvxq-130" value="&lt;font style=&quot;font-size: 15px;&quot; face=&quot;Times New Roman&quot;&gt;&lt;i&gt;K&lt;/i&gt;&lt;sub&gt;0&lt;/sub&gt;&lt;/font&gt;" style="text;html=1;strokeColor=none;fillColor=none;align=center;verticalAlign=middle;whiteSpace=wrap;rounded=0;fontSize=20;" vertex="1" parent="1">
          <mxGeometry x="1157.5" y="732.5" width="60" height="30" as="geometry" />
        </mxCell>
        <mxCell id="nt_aSUkmN2T9LPsWKvxq-131" value="&lt;font style=&quot;font-size: 15px;&quot; face=&quot;Times New Roman&quot;&gt;&lt;i&gt;K&lt;/i&gt;&lt;sub&gt;1&lt;/sub&gt;&lt;/font&gt;" style="text;html=1;strokeColor=none;fillColor=none;align=center;verticalAlign=middle;whiteSpace=wrap;rounded=0;fontSize=20;" vertex="1" parent="1">
          <mxGeometry x="1147.5" y="692.5" width="60" height="30" as="geometry" />
        </mxCell>
        <mxCell id="nt_aSUkmN2T9LPsWKvxq-133" value="" style="shape=cube;whiteSpace=wrap;html=1;boundedLbl=1;backgroundOutline=1;darkOpacity=0.05;darkOpacity2=0.1;" vertex="1" parent="1">
          <mxGeometry x="1047.5" y="672.5" width="110" height="80" as="geometry" />
        </mxCell>
        <mxCell id="nt_aSUkmN2T9LPsWKvxq-134" value="&lt;font style=&quot;font-size: 15px;&quot; face=&quot;Times New Roman&quot;&gt;&lt;i&gt;K&lt;/i&gt;&lt;sub&gt;0&lt;/sub&gt;&lt;/font&gt;" style="text;html=1;strokeColor=none;fillColor=none;align=center;verticalAlign=middle;whiteSpace=wrap;rounded=0;fontSize=20;" vertex="1" parent="1">
          <mxGeometry x="1017.5" y="732.5" width="60" height="30" as="geometry" />
        </mxCell>
        <mxCell id="nt_aSUkmN2T9LPsWKvxq-135" value="&lt;font style=&quot;font-size: 15px;&quot; face=&quot;Times New Roman&quot;&gt;&lt;i&gt;K&lt;/i&gt;&lt;sub&gt;1&lt;/sub&gt;&lt;/font&gt;" style="text;html=1;strokeColor=none;fillColor=none;align=center;verticalAlign=middle;whiteSpace=wrap;rounded=0;fontSize=20;" vertex="1" parent="1">
          <mxGeometry x="1007.5" y="692.5" width="60" height="30" as="geometry" />
        </mxCell>
        <mxCell id="nt_aSUkmN2T9LPsWKvxq-139" value="&lt;font style=&quot;font-size: 15px;&quot; face=&quot;Times New Roman&quot;&gt;[&lt;i&gt;C&lt;/i&gt;&lt;sub&gt;in&amp;nbsp;&lt;/sub&gt;&lt;/font&gt;&lt;span style=&quot;font-family: &amp;quot;Times New Roman&amp;quot;; font-size: 15px;&quot;&gt;* &lt;i&gt;r&lt;/i&gt;]&lt;/span&gt;" style="text;html=1;strokeColor=none;fillColor=none;align=center;verticalAlign=middle;whiteSpace=wrap;rounded=0;fontSize=20;" vertex="1" parent="1">
          <mxGeometry x="626.5" y="615" width="105" height="30" as="geometry" />
        </mxCell>
        <mxCell id="nt_aSUkmN2T9LPsWKvxq-149" value="&lt;font style=&quot;font-size: 15px;&quot; face=&quot;Times New Roman&quot;&gt;[&lt;i&gt;C&lt;/i&gt;&lt;sub&gt;out&amp;nbsp;&lt;/sub&gt;&lt;/font&gt;&lt;span style=&quot;font-family: &amp;quot;Times New Roman&amp;quot;; font-size: 15px;&quot;&gt;* &lt;i&gt;r&lt;/i&gt;]&lt;/span&gt;" style="text;html=1;strokeColor=none;fillColor=none;align=center;verticalAlign=middle;whiteSpace=wrap;rounded=0;fontSize=20;" vertex="1" parent="1">
          <mxGeometry x="626.5" y="975" width="105" height="30" as="geometry" />
        </mxCell>
        <mxCell id="nt_aSUkmN2T9LPsWKvxq-150" value="" style="endArrow=none;html=1;strokeWidth=2;rounded=0;fontFamily=Times New Roman;fontSize=20;dashed=1;" edge="1" parent="1">
          <mxGeometry width="50" height="50" relative="1" as="geometry">
            <mxPoint x="1007.5" y="782.5" as="sourcePoint" />
            <mxPoint x="1007.5" y="642.5" as="targetPoint" />
          </mxGeometry>
        </mxCell>
        <mxCell id="nt_aSUkmN2T9LPsWKvxq-151" value="&lt;font style=&quot;font-size: 15px;&quot; face=&quot;Times New Roman&quot;&gt;[&lt;i&gt;C&lt;/i&gt;&lt;sub&gt;in&amp;nbsp;&lt;/sub&gt;&lt;/font&gt;&lt;span style=&quot;font-family: &amp;quot;Times New Roman&amp;quot;; font-size: 15px;&quot;&gt;* &lt;i&gt;r&lt;/i&gt;]&lt;/span&gt;" style="text;html=1;strokeColor=none;fillColor=none;align=center;verticalAlign=middle;whiteSpace=wrap;rounded=0;fontSize=20;" vertex="1" parent="1">
          <mxGeometry x="67.5" y="747.5" width="105" height="30" as="geometry" />
        </mxCell>
        <mxCell id="nt_aSUkmN2T9LPsWKvxq-152" value="&lt;font style=&quot;font-size: 15px;&quot; face=&quot;Times New Roman&quot;&gt;[&lt;i&gt;C&lt;/i&gt;&lt;sub&gt;in&amp;nbsp;&lt;/sub&gt;&lt;/font&gt;&lt;span style=&quot;font-family: &amp;quot;Times New Roman&amp;quot;; font-size: 15px;&quot;&gt;* &lt;i&gt;r&lt;/i&gt;]&lt;/span&gt;" style="text;html=1;strokeColor=none;fillColor=none;align=center;verticalAlign=middle;whiteSpace=wrap;rounded=0;fontSize=20;" vertex="1" parent="1">
          <mxGeometry x="207.5" y="747.5" width="105" height="30" as="geometry" />
        </mxCell>
        <mxCell id="nt_aSUkmN2T9LPsWKvxq-153" value="&lt;font style=&quot;font-size: 15px;&quot; face=&quot;Times New Roman&quot;&gt;[&lt;i&gt;C&lt;/i&gt;&lt;sub&gt;in&amp;nbsp;&lt;/sub&gt;&lt;/font&gt;&lt;span style=&quot;font-family: &amp;quot;Times New Roman&amp;quot;; font-size: 15px;&quot;&gt;* &lt;i&gt;r&lt;/i&gt;]&lt;/span&gt;" style="text;html=1;strokeColor=none;fillColor=none;align=center;verticalAlign=middle;whiteSpace=wrap;rounded=0;fontSize=20;" vertex="1" parent="1">
          <mxGeometry x="347.5" y="747.5" width="105" height="30" as="geometry" />
        </mxCell>
        <mxCell id="nt_aSUkmN2T9LPsWKvxq-157" value="&lt;font style=&quot;font-size: 15px;&quot; face=&quot;Times New Roman&quot;&gt;[&lt;i&gt;C&lt;/i&gt;&lt;sub&gt;in&amp;nbsp;&lt;/sub&gt;&lt;/font&gt;&lt;span style=&quot;font-family: &amp;quot;Times New Roman&amp;quot;; font-size: 15px;&quot;&gt;* &lt;i&gt;r&lt;/i&gt;]&lt;/span&gt;" style="text;html=1;strokeColor=none;fillColor=none;align=center;verticalAlign=middle;whiteSpace=wrap;rounded=0;fontSize=20;" vertex="1" parent="1">
          <mxGeometry x="587.5" y="747.5" width="105" height="30" as="geometry" />
        </mxCell>
        <mxCell id="nt_aSUkmN2T9LPsWKvxq-168" value="" style="shape=cube;whiteSpace=wrap;html=1;boundedLbl=1;backgroundOutline=1;darkOpacity=0.05;darkOpacity2=0.1;" vertex="1" parent="1">
          <mxGeometry x="857.5" y="672.5" width="110" height="80" as="geometry" />
        </mxCell>
        <mxCell id="nt_aSUkmN2T9LPsWKvxq-171" value="" style="shape=curlyBracket;whiteSpace=wrap;html=1;rounded=1;flipH=1;fontFamily=Times New Roman;fontSize=15;direction=north;" vertex="1" parent="1">
          <mxGeometry x="107.5" y="782.5" width="820" height="20" as="geometry" />
        </mxCell>
        <mxCell id="nt_aSUkmN2T9LPsWKvxq-172" value="&lt;font style=&quot;font-size: 15px;&quot; face=&quot;Times New Roman&quot;&gt;&lt;i&gt;C&lt;/i&gt;&lt;sub&gt;out&lt;/sub&gt;&lt;/font&gt;" style="text;html=1;strokeColor=none;fillColor=none;align=center;verticalAlign=middle;whiteSpace=wrap;rounded=0;fontSize=20;" vertex="1" parent="1">
          <mxGeometry x="487.5" y="797.5" width="60" height="30" as="geometry" />
        </mxCell>
        <mxCell id="nt_aSUkmN2T9LPsWKvxq-174" value="" style="endArrow=none;dashed=1;html=1;dashPattern=1 3;strokeWidth=2;rounded=0;fontFamily=Times New Roman;fontSize=20;" edge="1" parent="1">
          <mxGeometry width="50" height="50" relative="1" as="geometry">
            <mxPoint x="700.5" y="620" as="sourcePoint" />
            <mxPoint x="700.5" y="540" as="targetPoint" />
          </mxGeometry>
        </mxCell>
        <mxCell id="nt_aSUkmN2T9LPsWKvxq-175" value="" style="endArrow=none;dashed=1;html=1;dashPattern=1 3;strokeWidth=2;rounded=0;fontFamily=Times New Roman;fontSize=20;" edge="1" parent="1">
          <mxGeometry width="50" height="50" relative="1" as="geometry">
            <mxPoint x="700.5" y="540" as="sourcePoint" />
            <mxPoint x="673.0000000000005" y="510" as="targetPoint" />
          </mxGeometry>
        </mxCell>
        <mxCell id="nt_aSUkmN2T9LPsWKvxq-198" value="" style="endArrow=none;dashed=1;html=1;dashPattern=1 3;strokeWidth=2;rounded=0;fontFamily=Times New Roman;fontSize=20;" edge="1" parent="1">
          <mxGeometry width="50" height="50" relative="1" as="geometry">
            <mxPoint x="704.5" y="980" as="sourcePoint" />
            <mxPoint x="704.5" y="902.5" as="targetPoint" />
          </mxGeometry>
        </mxCell>
        <mxCell id="nt_aSUkmN2T9LPsWKvxq-199" value="" style="endArrow=none;dashed=1;html=1;dashPattern=1 3;strokeWidth=2;rounded=0;fontFamily=Times New Roman;fontSize=20;" edge="1" parent="1">
          <mxGeometry width="50" height="50" relative="1" as="geometry">
            <mxPoint x="701.5" y="897.5" as="sourcePoint" />
            <mxPoint x="687.5" y="882.5" as="targetPoint" />
          </mxGeometry>
        </mxCell>
        <mxCell id="nt_aSUkmN2T9LPsWKvxq-200" value="" style="endArrow=none;dashed=1;html=1;dashPattern=1 3;strokeWidth=2;rounded=0;fontFamily=Times New Roman;fontSize=20;" edge="1" parent="1">
          <mxGeometry width="50" height="50" relative="1" as="geometry">
            <mxPoint x="1227.5" y="692.5" as="sourcePoint" />
            <mxPoint x="1227.5" y="752.5" as="targetPoint" />
          </mxGeometry>
        </mxCell>
        <mxCell id="nt_aSUkmN2T9LPsWKvxq-201" value="" style="endArrow=none;dashed=1;html=1;dashPattern=1 3;strokeWidth=2;rounded=0;fontFamily=Times New Roman;fontSize=20;" edge="1" parent="1">
          <mxGeometry width="50" height="50" relative="1" as="geometry">
            <mxPoint x="1207.5" y="672.5" as="sourcePoint" />
            <mxPoint x="1227.5" y="692.5" as="targetPoint" />
          </mxGeometry>
        </mxCell>
        <mxCell id="nt_aSUkmN2T9LPsWKvxq-202" value="" style="endArrow=none;dashed=1;html=1;dashPattern=1 3;strokeWidth=2;rounded=0;fontFamily=Times New Roman;fontSize=20;" edge="1" parent="1">
          <mxGeometry width="50" height="50" relative="1" as="geometry">
            <mxPoint x="1277.5" y="692.5" as="sourcePoint" />
            <mxPoint x="1277.5" y="752.5" as="targetPoint" />
          </mxGeometry>
        </mxCell>
        <mxCell id="nt_aSUkmN2T9LPsWKvxq-203" value="" style="endArrow=none;dashed=1;html=1;dashPattern=1 3;strokeWidth=2;rounded=0;fontFamily=Times New Roman;fontSize=20;" edge="1" parent="1">
          <mxGeometry width="50" height="50" relative="1" as="geometry">
            <mxPoint x="1257.5" y="672.5" as="sourcePoint" />
            <mxPoint x="1277.5" y="692.5" as="targetPoint" />
          </mxGeometry>
        </mxCell>
        <mxCell id="nt_aSUkmN2T9LPsWKvxq-204" value="" style="endArrow=none;dashed=1;html=1;dashPattern=1 3;strokeWidth=2;rounded=0;fontFamily=Times New Roman;fontSize=20;" edge="1" parent="1">
          <mxGeometry width="50" height="50" relative="1" as="geometry">
            <mxPoint x="1137.5" y="692.5" as="sourcePoint" />
            <mxPoint x="1137.5" y="752.5" as="targetPoint" />
          </mxGeometry>
        </mxCell>
        <mxCell id="nt_aSUkmN2T9LPsWKvxq-205" value="" style="endArrow=none;dashed=1;html=1;dashPattern=1 3;strokeWidth=2;rounded=0;fontFamily=Times New Roman;fontSize=20;" edge="1" parent="1">
          <mxGeometry width="50" height="50" relative="1" as="geometry">
            <mxPoint x="1117.5" y="672.5" as="sourcePoint" />
            <mxPoint x="1137.5" y="692.5" as="targetPoint" />
          </mxGeometry>
        </mxCell>
        <mxCell id="nt_aSUkmN2T9LPsWKvxq-206" value="" style="endArrow=none;dashed=1;html=1;dashPattern=1 3;strokeWidth=2;rounded=0;fontFamily=Times New Roman;fontSize=20;" edge="1" parent="1">
          <mxGeometry width="50" height="50" relative="1" as="geometry">
            <mxPoint x="1087.5" y="692.5" as="sourcePoint" />
            <mxPoint x="1087.5" y="752.5" as="targetPoint" />
          </mxGeometry>
        </mxCell>
        <mxCell id="nt_aSUkmN2T9LPsWKvxq-207" value="" style="endArrow=none;dashed=1;html=1;dashPattern=1 3;strokeWidth=2;rounded=0;fontFamily=Times New Roman;fontSize=20;" edge="1" parent="1">
          <mxGeometry width="50" height="50" relative="1" as="geometry">
            <mxPoint x="1067.5" y="672.5" as="sourcePoint" />
            <mxPoint x="1087.5" y="692.5" as="targetPoint" />
          </mxGeometry>
        </mxCell>
        <mxCell id="nt_aSUkmN2T9LPsWKvxq-208" value="" style="endArrow=none;dashed=1;html=1;dashPattern=1 3;strokeWidth=2;rounded=0;fontFamily=Times New Roman;fontSize=20;" edge="1" parent="1">
          <mxGeometry width="50" height="50" relative="1" as="geometry">
            <mxPoint x="947.5" y="692.5" as="sourcePoint" />
            <mxPoint x="947.5" y="752.5" as="targetPoint" />
          </mxGeometry>
        </mxCell>
        <mxCell id="nt_aSUkmN2T9LPsWKvxq-209" value="" style="endArrow=none;dashed=1;html=1;dashPattern=1 3;strokeWidth=2;rounded=0;fontFamily=Times New Roman;fontSize=20;" edge="1" parent="1">
          <mxGeometry width="50" height="50" relative="1" as="geometry">
            <mxPoint x="927.5" y="672.5" as="sourcePoint" />
            <mxPoint x="947.5" y="692.5" as="targetPoint" />
          </mxGeometry>
        </mxCell>
        <mxCell id="nt_aSUkmN2T9LPsWKvxq-210" value="" style="endArrow=none;dashed=1;html=1;dashPattern=1 3;strokeWidth=2;rounded=0;fontFamily=Times New Roman;fontSize=20;" edge="1" parent="1">
          <mxGeometry width="50" height="50" relative="1" as="geometry">
            <mxPoint x="897.5" y="692.5" as="sourcePoint" />
            <mxPoint x="897.5" y="752.5" as="targetPoint" />
          </mxGeometry>
        </mxCell>
        <mxCell id="nt_aSUkmN2T9LPsWKvxq-211" value="" style="endArrow=none;dashed=1;html=1;dashPattern=1 3;strokeWidth=2;rounded=0;fontFamily=Times New Roman;fontSize=20;" edge="1" parent="1">
          <mxGeometry width="50" height="50" relative="1" as="geometry">
            <mxPoint x="877.5" y="672.5" as="sourcePoint" />
            <mxPoint x="897.5" y="692.5" as="targetPoint" />
          </mxGeometry>
        </mxCell>
        <mxCell id="nt_aSUkmN2T9LPsWKvxq-212" value="" style="endArrow=none;dashed=1;html=1;dashPattern=1 3;strokeWidth=2;rounded=0;fontFamily=Times New Roman;fontSize=20;" edge="1" parent="1">
          <mxGeometry width="50" height="50" relative="1" as="geometry">
            <mxPoint x="807.5" y="692.5" as="sourcePoint" />
            <mxPoint x="807.5" y="752.5" as="targetPoint" />
          </mxGeometry>
        </mxCell>
        <mxCell id="nt_aSUkmN2T9LPsWKvxq-213" value="" style="endArrow=none;dashed=1;html=1;dashPattern=1 3;strokeWidth=2;rounded=0;fontFamily=Times New Roman;fontSize=20;" edge="1" parent="1">
          <mxGeometry width="50" height="50" relative="1" as="geometry">
            <mxPoint x="787.5" y="672.5" as="sourcePoint" />
            <mxPoint x="807.5" y="692.5" as="targetPoint" />
          </mxGeometry>
        </mxCell>
        <mxCell id="nt_aSUkmN2T9LPsWKvxq-214" value="" style="endArrow=none;dashed=1;html=1;dashPattern=1 3;strokeWidth=2;rounded=0;fontFamily=Times New Roman;fontSize=20;" edge="1" parent="1">
          <mxGeometry width="50" height="50" relative="1" as="geometry">
            <mxPoint x="757.5" y="692.5" as="sourcePoint" />
            <mxPoint x="757.5" y="752.5" as="targetPoint" />
          </mxGeometry>
        </mxCell>
        <mxCell id="nt_aSUkmN2T9LPsWKvxq-215" value="" style="endArrow=none;dashed=1;html=1;dashPattern=1 3;strokeWidth=2;rounded=0;fontFamily=Times New Roman;fontSize=20;" edge="1" parent="1">
          <mxGeometry width="50" height="50" relative="1" as="geometry">
            <mxPoint x="737.5" y="672.5" as="sourcePoint" />
            <mxPoint x="757.5" y="692.5" as="targetPoint" />
          </mxGeometry>
        </mxCell>
        <mxCell id="nt_aSUkmN2T9LPsWKvxq-216" value="" style="endArrow=none;dashed=1;html=1;dashPattern=1 3;strokeWidth=2;rounded=0;fontFamily=Times New Roman;fontSize=20;" edge="1" parent="1">
          <mxGeometry width="50" height="50" relative="1" as="geometry">
            <mxPoint x="669" y="692.5" as="sourcePoint" />
            <mxPoint x="669" y="752.5" as="targetPoint" />
          </mxGeometry>
        </mxCell>
        <mxCell id="nt_aSUkmN2T9LPsWKvxq-217" value="" style="endArrow=none;dashed=1;html=1;dashPattern=1 3;strokeWidth=2;rounded=0;fontFamily=Times New Roman;fontSize=20;" edge="1" parent="1">
          <mxGeometry width="50" height="50" relative="1" as="geometry">
            <mxPoint x="649" y="672.5" as="sourcePoint" />
            <mxPoint x="669" y="692.5" as="targetPoint" />
          </mxGeometry>
        </mxCell>
        <mxCell id="nt_aSUkmN2T9LPsWKvxq-218" value="" style="endArrow=none;dashed=1;html=1;dashPattern=1 3;strokeWidth=2;rounded=0;fontFamily=Times New Roman;fontSize=20;" edge="1" parent="1">
          <mxGeometry width="50" height="50" relative="1" as="geometry">
            <mxPoint x="617.5" y="692.5" as="sourcePoint" />
            <mxPoint x="617.5" y="752.5" as="targetPoint" />
          </mxGeometry>
        </mxCell>
        <mxCell id="nt_aSUkmN2T9LPsWKvxq-219" value="" style="endArrow=none;dashed=1;html=1;dashPattern=1 3;strokeWidth=2;rounded=0;fontFamily=Times New Roman;fontSize=20;" edge="1" parent="1">
          <mxGeometry width="50" height="50" relative="1" as="geometry">
            <mxPoint x="597.5" y="672.5" as="sourcePoint" />
            <mxPoint x="617.5" y="692.5" as="targetPoint" />
          </mxGeometry>
        </mxCell>
        <mxCell id="nt_aSUkmN2T9LPsWKvxq-222" value="" style="endArrow=none;dashed=1;html=1;dashPattern=1 3;strokeWidth=2;rounded=0;fontFamily=Times New Roman;fontSize=20;" edge="1" parent="1">
          <mxGeometry width="50" height="50" relative="1" as="geometry">
            <mxPoint x="427.5" y="692.5" as="sourcePoint" />
            <mxPoint x="427.5" y="752.5" as="targetPoint" />
          </mxGeometry>
        </mxCell>
        <mxCell id="nt_aSUkmN2T9LPsWKvxq-223" value="" style="endArrow=none;dashed=1;html=1;dashPattern=1 3;strokeWidth=2;rounded=0;fontFamily=Times New Roman;fontSize=20;" edge="1" parent="1">
          <mxGeometry width="50" height="50" relative="1" as="geometry">
            <mxPoint x="407.5" y="672.5" as="sourcePoint" />
            <mxPoint x="427.5" y="692.5" as="targetPoint" />
          </mxGeometry>
        </mxCell>
        <mxCell id="nt_aSUkmN2T9LPsWKvxq-224" value="" style="endArrow=none;dashed=1;html=1;dashPattern=1 3;strokeWidth=2;rounded=0;fontFamily=Times New Roman;fontSize=20;" edge="1" parent="1">
          <mxGeometry width="50" height="50" relative="1" as="geometry">
            <mxPoint x="377.5" y="692.5" as="sourcePoint" />
            <mxPoint x="377.5" y="752.5" as="targetPoint" />
          </mxGeometry>
        </mxCell>
        <mxCell id="nt_aSUkmN2T9LPsWKvxq-225" value="" style="endArrow=none;dashed=1;html=1;dashPattern=1 3;strokeWidth=2;rounded=0;fontFamily=Times New Roman;fontSize=20;" edge="1" parent="1">
          <mxGeometry width="50" height="50" relative="1" as="geometry">
            <mxPoint x="357.5" y="672.5" as="sourcePoint" />
            <mxPoint x="377.5" y="692.5" as="targetPoint" />
          </mxGeometry>
        </mxCell>
        <mxCell id="nt_aSUkmN2T9LPsWKvxq-227" value="" style="endArrow=none;dashed=1;html=1;dashPattern=1 3;strokeWidth=2;rounded=0;fontFamily=Times New Roman;fontSize=20;" edge="1" parent="1">
          <mxGeometry width="50" height="50" relative="1" as="geometry">
            <mxPoint x="287.5" y="692.5" as="sourcePoint" />
            <mxPoint x="287.5" y="752.5" as="targetPoint" />
          </mxGeometry>
        </mxCell>
        <mxCell id="nt_aSUkmN2T9LPsWKvxq-228" value="" style="endArrow=none;dashed=1;html=1;dashPattern=1 3;strokeWidth=2;rounded=0;fontFamily=Times New Roman;fontSize=20;" edge="1" parent="1">
          <mxGeometry width="50" height="50" relative="1" as="geometry">
            <mxPoint x="267.5" y="672.5" as="sourcePoint" />
            <mxPoint x="287.5" y="692.5" as="targetPoint" />
          </mxGeometry>
        </mxCell>
        <mxCell id="nt_aSUkmN2T9LPsWKvxq-229" value="" style="endArrow=none;dashed=1;html=1;dashPattern=1 3;strokeWidth=2;rounded=0;fontFamily=Times New Roman;fontSize=20;" edge="1" parent="1">
          <mxGeometry width="50" height="50" relative="1" as="geometry">
            <mxPoint x="237.5" y="692.5" as="sourcePoint" />
            <mxPoint x="237.5" y="752.5" as="targetPoint" />
          </mxGeometry>
        </mxCell>
        <mxCell id="nt_aSUkmN2T9LPsWKvxq-230" value="" style="endArrow=none;dashed=1;html=1;dashPattern=1 3;strokeWidth=2;rounded=0;fontFamily=Times New Roman;fontSize=20;" edge="1" parent="1">
          <mxGeometry width="50" height="50" relative="1" as="geometry">
            <mxPoint x="217.5" y="672.5" as="sourcePoint" />
            <mxPoint x="237.5" y="692.5" as="targetPoint" />
          </mxGeometry>
        </mxCell>
        <mxCell id="nt_aSUkmN2T9LPsWKvxq-231" value="" style="endArrow=none;dashed=1;html=1;dashPattern=1 3;strokeWidth=2;rounded=0;fontFamily=Times New Roman;fontSize=20;" edge="1" parent="1">
          <mxGeometry width="50" height="50" relative="1" as="geometry">
            <mxPoint x="147.5" y="692.5" as="sourcePoint" />
            <mxPoint x="147.5" y="752.5" as="targetPoint" />
          </mxGeometry>
        </mxCell>
        <mxCell id="nt_aSUkmN2T9LPsWKvxq-232" value="" style="endArrow=none;dashed=1;html=1;dashPattern=1 3;strokeWidth=2;rounded=0;fontFamily=Times New Roman;fontSize=20;" edge="1" parent="1">
          <mxGeometry width="50" height="50" relative="1" as="geometry">
            <mxPoint x="127.5" y="672.5" as="sourcePoint" />
            <mxPoint x="147.5" y="692.5" as="targetPoint" />
          </mxGeometry>
        </mxCell>
        <mxCell id="nt_aSUkmN2T9LPsWKvxq-233" value="" style="endArrow=none;dashed=1;html=1;dashPattern=1 3;strokeWidth=2;rounded=0;fontFamily=Times New Roman;fontSize=20;" edge="1" parent="1">
          <mxGeometry width="50" height="50" relative="1" as="geometry">
            <mxPoint x="97.5" y="692.5" as="sourcePoint" />
            <mxPoint x="97.5" y="752.5" as="targetPoint" />
          </mxGeometry>
        </mxCell>
        <mxCell id="nt_aSUkmN2T9LPsWKvxq-234" value="" style="endArrow=none;dashed=1;html=1;dashPattern=1 3;strokeWidth=2;rounded=0;fontFamily=Times New Roman;fontSize=20;" edge="1" parent="1">
          <mxGeometry width="50" height="50" relative="1" as="geometry">
            <mxPoint x="77.5" y="672.5" as="sourcePoint" />
            <mxPoint x="97.5" y="692.5" as="targetPoint" />
          </mxGeometry>
        </mxCell>
      </root>
    </mxGraphModel>
  </diagram>
  <diagram id="bl3z_xsFMOtDU9_p9WJ-" name="第 2 页">
    <mxGraphModel dx="920" dy="485" grid="1" gridSize="10" guides="1" tooltips="1" connect="1" arrows="1" fold="1" page="1" pageScale="1" pageWidth="827" pageHeight="1169" math="0" shadow="0">
      <root>
        <mxCell id="0" />
        <mxCell id="1" parent="0" />
        <mxCell id="1rvjcukENUylSan08Xyh-1" value="&lt;font style=&quot;font-size: 15px;&quot; face=&quot;Times New Roman&quot;&gt;[&lt;i&gt;C&lt;/i&gt;&lt;sub&gt;in&amp;nbsp;&lt;/sub&gt;&lt;/font&gt;&lt;span style=&quot;font-family: &amp;quot;Times New Roman&amp;quot;; font-size: 15px;&quot;&gt;* &lt;i&gt;r&lt;/i&gt;]&lt;/span&gt;" style="text;html=1;strokeColor=none;fillColor=none;align=center;verticalAlign=middle;whiteSpace=wrap;rounded=0;fontSize=20;" vertex="1" parent="1">
          <mxGeometry x="727.5" y="747.5" width="105" height="30" as="geometry" />
        </mxCell>
        <mxCell id="1rvjcukENUylSan08Xyh-2" value="&lt;font style=&quot;font-size: 15px;&quot; face=&quot;Times New Roman&quot;&gt;[&lt;i&gt;C&lt;/i&gt;&lt;sub&gt;in&amp;nbsp;&lt;/sub&gt;&lt;/font&gt;&lt;span style=&quot;font-family: &amp;quot;Times New Roman&amp;quot;; font-size: 15px;&quot;&gt;* &lt;i&gt;r&lt;/i&gt;]&lt;/span&gt;" style="text;html=1;strokeColor=none;fillColor=none;align=center;verticalAlign=middle;whiteSpace=wrap;rounded=0;fontSize=20;" vertex="1" parent="1">
          <mxGeometry x="867.5" y="747.5" width="105" height="30" as="geometry" />
        </mxCell>
        <mxCell id="1rvjcukENUylSan08Xyh-3" value="&lt;font style=&quot;font-size: 15px;&quot; face=&quot;Times New Roman&quot;&gt;[&lt;i&gt;C&lt;/i&gt;&lt;sub&gt;in&amp;nbsp;&lt;/sub&gt;&lt;/font&gt;&lt;span style=&quot;font-family: &amp;quot;Times New Roman&amp;quot;; font-size: 15px;&quot;&gt;* &lt;i&gt;r&lt;/i&gt;]&lt;/span&gt;" style="text;html=1;strokeColor=none;fillColor=none;align=center;verticalAlign=middle;whiteSpace=wrap;rounded=0;fontSize=20;" vertex="1" parent="1">
          <mxGeometry x="1057.5" y="747.5" width="105" height="30" as="geometry" />
        </mxCell>
        <mxCell id="1rvjcukENUylSan08Xyh-4" value="&lt;font style=&quot;font-size: 15px;&quot; face=&quot;Times New Roman&quot;&gt;[&lt;i&gt;C&lt;/i&gt;&lt;sub&gt;in&amp;nbsp;&lt;/sub&gt;&lt;/font&gt;&lt;span style=&quot;font-family: &amp;quot;Times New Roman&amp;quot;; font-size: 15px;&quot;&gt;* &lt;i&gt;r&lt;/i&gt;]&lt;/span&gt;" style="text;html=1;strokeColor=none;fillColor=none;align=center;verticalAlign=middle;whiteSpace=wrap;rounded=0;fontSize=20;" vertex="1" parent="1">
          <mxGeometry x="1197.5" y="747.5" width="105" height="30" as="geometry" />
        </mxCell>
        <mxCell id="1rvjcukENUylSan08Xyh-5" value="" style="shape=cube;whiteSpace=wrap;html=1;boundedLbl=1;backgroundOutline=1;darkOpacity=0.05;darkOpacity2=0.1;size=20;" vertex="1" parent="1">
          <mxGeometry x="671.5" y="880" width="50" height="100" as="geometry" />
        </mxCell>
        <mxCell id="1rvjcukENUylSan08Xyh-6" value="" style="shape=cube;whiteSpace=wrap;html=1;boundedLbl=1;backgroundOutline=1;darkOpacity=0.05;darkOpacity2=0.1;" vertex="1" parent="1">
          <mxGeometry x="1247.5" y="672.5" width="50" height="80" as="geometry" />
        </mxCell>
        <mxCell id="1rvjcukENUylSan08Xyh-7" value="" style="shape=cube;whiteSpace=wrap;html=1;boundedLbl=1;backgroundOutline=1;darkOpacity=0.05;darkOpacity2=0.1;" vertex="1" parent="1">
          <mxGeometry x="1107.5" y="672.5" width="50" height="80" as="geometry" />
        </mxCell>
        <mxCell id="1rvjcukENUylSan08Xyh-8" value="" style="shape=cube;whiteSpace=wrap;html=1;boundedLbl=1;backgroundOutline=1;darkOpacity=0.05;darkOpacity2=0.1;" vertex="1" parent="1">
          <mxGeometry x="917.5" y="672.5" width="50" height="80" as="geometry" />
        </mxCell>
        <mxCell id="1rvjcukENUylSan08Xyh-9" value="" style="shape=cube;whiteSpace=wrap;html=1;boundedLbl=1;backgroundOutline=1;darkOpacity=0.05;darkOpacity2=0.1;" vertex="1" parent="1">
          <mxGeometry x="777.5" y="672.5" width="50" height="80" as="geometry" />
        </mxCell>
        <mxCell id="1rvjcukENUylSan08Xyh-10" value="" style="shape=cube;whiteSpace=wrap;html=1;boundedLbl=1;backgroundOutline=1;darkOpacity=0.05;darkOpacity2=0.1;" vertex="1" parent="1">
          <mxGeometry x="637.5" y="672.5" width="50" height="80" as="geometry" />
        </mxCell>
        <mxCell id="1rvjcukENUylSan08Xyh-11" value="" style="shape=cube;whiteSpace=wrap;html=1;boundedLbl=1;backgroundOutline=1;darkOpacity=0.05;darkOpacity2=0.1;" vertex="1" parent="1">
          <mxGeometry x="117.5" y="672.5" width="50" height="80" as="geometry" />
        </mxCell>
        <mxCell id="1rvjcukENUylSan08Xyh-12" value="" style="shape=cube;whiteSpace=wrap;html=1;boundedLbl=1;backgroundOutline=1;darkOpacity=0.05;darkOpacity2=0.1;" vertex="1" parent="1">
          <mxGeometry x="257.5" y="672.5" width="50" height="80" as="geometry" />
        </mxCell>
        <mxCell id="1rvjcukENUylSan08Xyh-13" value="" style="shape=cube;whiteSpace=wrap;html=1;boundedLbl=1;backgroundOutline=1;darkOpacity=0.05;darkOpacity2=0.1;" vertex="1" parent="1">
          <mxGeometry x="397.5" y="672.5" width="50" height="80" as="geometry" />
        </mxCell>
        <mxCell id="1rvjcukENUylSan08Xyh-14" value="" style="shape=cube;whiteSpace=wrap;html=1;boundedLbl=1;backgroundOutline=1;darkOpacity=0.05;darkOpacity2=0.1;size=30;" vertex="1" parent="1">
          <mxGeometry x="661.5" y="510" width="60" height="110" as="geometry" />
        </mxCell>
        <mxCell id="1rvjcukENUylSan08Xyh-15" value="" style="shape=cube;whiteSpace=wrap;html=1;boundedLbl=1;backgroundOutline=1;darkOpacity=0.05;darkOpacity2=0.1;" vertex="1" parent="1">
          <mxGeometry x="337.5" y="672.5" width="110" height="80" as="geometry" />
        </mxCell>
        <mxCell id="1rvjcukENUylSan08Xyh-16" value="&lt;font style=&quot;font-size: 20px;&quot;&gt;. . . . . .&lt;/font&gt;" style="text;html=1;strokeColor=none;fillColor=none;align=center;verticalAlign=middle;whiteSpace=wrap;rounded=0;" vertex="1" parent="1">
          <mxGeometry x="447.5" y="697.5" width="110" height="30" as="geometry" />
        </mxCell>
        <mxCell id="1rvjcukENUylSan08Xyh-17" value="&lt;font style=&quot;font-size: 15px;&quot; face=&quot;Times New Roman&quot;&gt;&lt;i&gt;K&lt;/i&gt;&lt;sub&gt;0&lt;/sub&gt;&lt;/font&gt;" style="text;html=1;strokeColor=none;fillColor=none;align=center;verticalAlign=middle;whiteSpace=wrap;rounded=0;fontSize=20;" vertex="1" parent="1">
          <mxGeometry x="307.5" y="732.5" width="60" height="30" as="geometry" />
        </mxCell>
        <mxCell id="1rvjcukENUylSan08Xyh-18" value="&lt;font style=&quot;font-size: 15px;&quot; face=&quot;Times New Roman&quot;&gt;&lt;i&gt;K&lt;/i&gt;&lt;sub&gt;1&lt;/sub&gt;&lt;/font&gt;" style="text;html=1;strokeColor=none;fillColor=none;align=center;verticalAlign=middle;whiteSpace=wrap;rounded=0;fontSize=20;" vertex="1" parent="1">
          <mxGeometry x="297.5" y="692.5" width="60" height="30" as="geometry" />
        </mxCell>
        <mxCell id="1rvjcukENUylSan08Xyh-19" value="&lt;font style=&quot;font-size: 15px;&quot; face=&quot;Times New Roman&quot;&gt;[&lt;i&gt;C&lt;/i&gt;&lt;sub&gt;out&amp;nbsp;&lt;/sub&gt;&lt;/font&gt;&lt;span style=&quot;font-family: &amp;quot;Times New Roman&amp;quot;; font-size: 15px;&quot;&gt;* &lt;i&gt;r&lt;/i&gt;]&lt;/span&gt;" style="text;html=1;strokeColor=none;fillColor=none;align=center;verticalAlign=middle;whiteSpace=wrap;rounded=0;fontSize=20;" vertex="1" parent="1">
          <mxGeometry x="612.5" y="840" width="105" height="30" as="geometry" />
        </mxCell>
        <mxCell id="1rvjcukENUylSan08Xyh-20" value="" style="shape=cube;whiteSpace=wrap;html=1;boundedLbl=1;backgroundOutline=1;darkOpacity=0.05;darkOpacity2=0.1;" vertex="1" parent="1">
          <mxGeometry x="197.5" y="672.5" width="110" height="80" as="geometry" />
        </mxCell>
        <mxCell id="1rvjcukENUylSan08Xyh-21" value="&lt;font style=&quot;font-size: 15px;&quot; face=&quot;Times New Roman&quot;&gt;&lt;i&gt;K&lt;/i&gt;&lt;sub&gt;0&lt;/sub&gt;&lt;/font&gt;" style="text;html=1;strokeColor=none;fillColor=none;align=center;verticalAlign=middle;whiteSpace=wrap;rounded=0;fontSize=20;" vertex="1" parent="1">
          <mxGeometry x="167.5" y="732.5" width="60" height="30" as="geometry" />
        </mxCell>
        <mxCell id="1rvjcukENUylSan08Xyh-22" value="&lt;font style=&quot;font-size: 15px;&quot; face=&quot;Times New Roman&quot;&gt;&lt;i&gt;K&lt;/i&gt;&lt;sub&gt;1&lt;/sub&gt;&lt;/font&gt;" style="text;html=1;strokeColor=none;fillColor=none;align=center;verticalAlign=middle;whiteSpace=wrap;rounded=0;fontSize=20;" vertex="1" parent="1">
          <mxGeometry x="157.5" y="692.5" width="60" height="30" as="geometry" />
        </mxCell>
        <mxCell id="1rvjcukENUylSan08Xyh-23" value="" style="shape=cube;whiteSpace=wrap;html=1;boundedLbl=1;backgroundOutline=1;darkOpacity=0.05;darkOpacity2=0.1;" vertex="1" parent="1">
          <mxGeometry x="57.5" y="672.5" width="110" height="80" as="geometry" />
        </mxCell>
        <mxCell id="1rvjcukENUylSan08Xyh-24" value="&lt;font style=&quot;font-size: 15px;&quot; face=&quot;Times New Roman&quot;&gt;&lt;i&gt;K&lt;/i&gt;&lt;sub&gt;0&lt;/sub&gt;&lt;/font&gt;" style="text;html=1;strokeColor=none;fillColor=none;align=center;verticalAlign=middle;whiteSpace=wrap;rounded=0;fontSize=20;" vertex="1" parent="1">
          <mxGeometry x="27.5" y="732.5" width="60" height="30" as="geometry" />
        </mxCell>
        <mxCell id="1rvjcukENUylSan08Xyh-25" value="&lt;font style=&quot;font-size: 15px;&quot; face=&quot;Times New Roman&quot;&gt;&lt;i&gt;K&lt;/i&gt;&lt;sub&gt;1&lt;/sub&gt;&lt;/font&gt;" style="text;html=1;strokeColor=none;fillColor=none;align=center;verticalAlign=middle;whiteSpace=wrap;rounded=0;fontSize=20;" vertex="1" parent="1">
          <mxGeometry x="17.5" y="692.5" width="60" height="30" as="geometry" />
        </mxCell>
        <mxCell id="1rvjcukENUylSan08Xyh-26" value="" style="shape=cube;whiteSpace=wrap;html=1;boundedLbl=1;backgroundOutline=1;darkOpacity=0.05;darkOpacity2=0.1;" vertex="1" parent="1">
          <mxGeometry x="887.5" y="672.5" width="80" height="80" as="geometry" />
        </mxCell>
        <mxCell id="1rvjcukENUylSan08Xyh-27" value="&lt;font style=&quot;font-size: 15px;&quot; face=&quot;Times New Roman&quot;&gt;&lt;i&gt;K&lt;/i&gt;&lt;sub&gt;0&lt;/sub&gt;&lt;/font&gt;" style="text;html=1;strokeColor=none;fillColor=none;align=center;verticalAlign=middle;whiteSpace=wrap;rounded=0;fontSize=20;" vertex="1" parent="1">
          <mxGeometry x="827.5" y="732.5" width="60" height="30" as="geometry" />
        </mxCell>
        <mxCell id="1rvjcukENUylSan08Xyh-28" value="&lt;font style=&quot;font-size: 15px;&quot; face=&quot;Times New Roman&quot;&gt;&lt;i&gt;K&lt;/i&gt;&lt;sub&gt;1&lt;/sub&gt;&lt;/font&gt;" style="text;html=1;strokeColor=none;fillColor=none;align=center;verticalAlign=middle;whiteSpace=wrap;rounded=0;fontSize=20;" vertex="1" parent="1">
          <mxGeometry x="817.5" y="692.5" width="60" height="30" as="geometry" />
        </mxCell>
        <mxCell id="1rvjcukENUylSan08Xyh-29" value="" style="shape=cube;whiteSpace=wrap;html=1;boundedLbl=1;backgroundOutline=1;darkOpacity=0.05;darkOpacity2=0.1;" vertex="1" parent="1">
          <mxGeometry x="717.5" y="672.5" width="110" height="80" as="geometry" />
        </mxCell>
        <mxCell id="1rvjcukENUylSan08Xyh-30" value="&lt;font style=&quot;font-size: 15px;&quot; face=&quot;Times New Roman&quot;&gt;&lt;i&gt;K&lt;/i&gt;&lt;sub&gt;0&lt;/sub&gt;&lt;/font&gt;" style="text;html=1;strokeColor=none;fillColor=none;align=center;verticalAlign=middle;whiteSpace=wrap;rounded=0;fontSize=20;" vertex="1" parent="1">
          <mxGeometry x="687.5" y="732.5" width="60" height="30" as="geometry" />
        </mxCell>
        <mxCell id="1rvjcukENUylSan08Xyh-31" value="&lt;font style=&quot;font-size: 15px;&quot; face=&quot;Times New Roman&quot;&gt;&lt;i&gt;K&lt;/i&gt;&lt;sub&gt;1&lt;/sub&gt;&lt;/font&gt;" style="text;html=1;strokeColor=none;fillColor=none;align=center;verticalAlign=middle;whiteSpace=wrap;rounded=0;fontSize=20;" vertex="1" parent="1">
          <mxGeometry x="677.5" y="692.5" width="60" height="30" as="geometry" />
        </mxCell>
        <mxCell id="1rvjcukENUylSan08Xyh-32" value="" style="shape=cube;whiteSpace=wrap;html=1;boundedLbl=1;backgroundOutline=1;darkOpacity=0.05;darkOpacity2=0.1;" vertex="1" parent="1">
          <mxGeometry x="577.5" y="672.5" width="110" height="80" as="geometry" />
        </mxCell>
        <mxCell id="1rvjcukENUylSan08Xyh-33" value="&lt;font style=&quot;font-size: 15px;&quot; face=&quot;Times New Roman&quot;&gt;&lt;i&gt;K&lt;/i&gt;&lt;sub&gt;0&lt;/sub&gt;&lt;/font&gt;" style="text;html=1;strokeColor=none;fillColor=none;align=center;verticalAlign=middle;whiteSpace=wrap;rounded=0;fontSize=20;" vertex="1" parent="1">
          <mxGeometry x="547.5" y="732.5" width="60" height="30" as="geometry" />
        </mxCell>
        <mxCell id="1rvjcukENUylSan08Xyh-34" value="&lt;font style=&quot;font-size: 15px;&quot; face=&quot;Times New Roman&quot;&gt;&lt;i&gt;K&lt;/i&gt;&lt;sub&gt;1&lt;/sub&gt;&lt;/font&gt;" style="text;html=1;strokeColor=none;fillColor=none;align=center;verticalAlign=middle;whiteSpace=wrap;rounded=0;fontSize=20;" vertex="1" parent="1">
          <mxGeometry x="537.5" y="692.5" width="60" height="30" as="geometry" />
        </mxCell>
        <mxCell id="1rvjcukENUylSan08Xyh-35" value="" style="shape=curlyBracket;whiteSpace=wrap;html=1;rounded=1;flipH=1;fontFamily=Times New Roman;fontSize=15;direction=north;" vertex="1" parent="1">
          <mxGeometry x="107.5" y="820" width="1130" height="20" as="geometry" />
        </mxCell>
        <mxCell id="1rvjcukENUylSan08Xyh-36" value="" style="shape=cube;whiteSpace=wrap;html=1;boundedLbl=1;backgroundOutline=1;darkOpacity=0.05;darkOpacity2=0.1;size=30;" vertex="1" parent="1">
          <mxGeometry x="601.5" y="510" width="126" height="110" as="geometry" />
        </mxCell>
        <mxCell id="1rvjcukENUylSan08Xyh-37" value="&lt;font style=&quot;font-size: 15px;&quot; face=&quot;Times New Roman&quot;&gt;&lt;i&gt;H&lt;/i&gt;&lt;sub&gt;in&lt;/sub&gt;&lt;/font&gt;" style="text;html=1;strokeColor=none;fillColor=none;align=center;verticalAlign=middle;whiteSpace=wrap;rounded=0;fontSize=20;" vertex="1" parent="1">
          <mxGeometry x="576.5" y="595" width="60" height="30" as="geometry" />
        </mxCell>
        <mxCell id="1rvjcukENUylSan08Xyh-38" value="&lt;font style=&quot;font-size: 15px;&quot; face=&quot;Times New Roman&quot;&gt;&lt;i&gt;W&lt;/i&gt;&lt;sub&gt;in&lt;/sub&gt;&lt;/font&gt;" style="text;html=1;strokeColor=none;fillColor=none;align=center;verticalAlign=middle;whiteSpace=wrap;rounded=0;fontSize=20;" vertex="1" parent="1">
          <mxGeometry x="556.5" y="540" width="60" height="30" as="geometry" />
        </mxCell>
        <mxCell id="1rvjcukENUylSan08Xyh-39" value="&lt;font style=&quot;font-size: 20px;&quot; face=&quot;Times New Roman&quot;&gt;x&#39;&lt;/font&gt;" style="text;html=1;strokeColor=none;fillColor=none;align=center;verticalAlign=middle;whiteSpace=wrap;rounded=0;fontSize=20;" vertex="1" parent="1">
          <mxGeometry x="649" y="565" width="60" height="30" as="geometry" />
        </mxCell>
        <mxCell id="1rvjcukENUylSan08Xyh-40" value="" style="shape=cube;whiteSpace=wrap;html=1;boundedLbl=1;backgroundOutline=1;darkOpacity=0.05;darkOpacity2=0.1;size=20;" vertex="1" parent="1">
          <mxGeometry x="610.5" y="880" width="117" height="100" as="geometry" />
        </mxCell>
        <mxCell id="1rvjcukENUylSan08Xyh-41" value="&lt;font style=&quot;font-size: 15px;&quot; face=&quot;Times New Roman&quot;&gt;&lt;i&gt;W&lt;/i&gt;&lt;sub&gt;out&lt;/sub&gt;&lt;/font&gt;" style="text;html=1;strokeColor=none;fillColor=none;align=center;verticalAlign=middle;whiteSpace=wrap;rounded=0;fontSize=20;" vertex="1" parent="1">
          <mxGeometry x="561.5" y="910" width="60" height="30" as="geometry" />
        </mxCell>
        <mxCell id="1rvjcukENUylSan08Xyh-42" value="&lt;font style=&quot;font-size: 15px;&quot; face=&quot;Times New Roman&quot;&gt;&lt;i&gt;H&lt;/i&gt;&lt;sub&gt;out&lt;/sub&gt;&lt;/font&gt;" style="text;html=1;strokeColor=none;fillColor=none;align=center;verticalAlign=middle;whiteSpace=wrap;rounded=0;fontSize=20;" vertex="1" parent="1">
          <mxGeometry x="581.5" y="965" width="60" height="30" as="geometry" />
        </mxCell>
        <mxCell id="1rvjcukENUylSan08Xyh-43" value="&lt;font style=&quot;font-size: 20px;&quot; face=&quot;Times New Roman&quot;&gt;y&#39;&lt;/font&gt;" style="text;html=1;strokeColor=none;fillColor=none;align=center;verticalAlign=middle;whiteSpace=wrap;rounded=0;fontSize=20;" vertex="1" parent="1">
          <mxGeometry x="644" y="925" width="60" height="30" as="geometry" />
        </mxCell>
        <mxCell id="1rvjcukENUylSan08Xyh-44" value="" style="shape=cube;whiteSpace=wrap;html=1;boundedLbl=1;backgroundOutline=1;darkOpacity=0.05;darkOpacity2=0.1;" vertex="1" parent="1">
          <mxGeometry x="1187.5" y="672.5" width="110" height="80" as="geometry" />
        </mxCell>
        <mxCell id="1rvjcukENUylSan08Xyh-45" value="&lt;font style=&quot;font-size: 15px;&quot; face=&quot;Times New Roman&quot;&gt;&lt;i&gt;K&lt;/i&gt;&lt;sub&gt;0&lt;/sub&gt;&lt;/font&gt;" style="text;html=1;strokeColor=none;fillColor=none;align=center;verticalAlign=middle;whiteSpace=wrap;rounded=0;fontSize=20;" vertex="1" parent="1">
          <mxGeometry x="1157.5" y="732.5" width="60" height="30" as="geometry" />
        </mxCell>
        <mxCell id="1rvjcukENUylSan08Xyh-46" value="&lt;font style=&quot;font-size: 15px;&quot; face=&quot;Times New Roman&quot;&gt;&lt;i&gt;K&lt;/i&gt;&lt;sub&gt;1&lt;/sub&gt;&lt;/font&gt;" style="text;html=1;strokeColor=none;fillColor=none;align=center;verticalAlign=middle;whiteSpace=wrap;rounded=0;fontSize=20;" vertex="1" parent="1">
          <mxGeometry x="1147.5" y="692.5" width="60" height="30" as="geometry" />
        </mxCell>
        <mxCell id="1rvjcukENUylSan08Xyh-47" value="" style="shape=cube;whiteSpace=wrap;html=1;boundedLbl=1;backgroundOutline=1;darkOpacity=0.05;darkOpacity2=0.1;" vertex="1" parent="1">
          <mxGeometry x="1047.5" y="672.5" width="110" height="80" as="geometry" />
        </mxCell>
        <mxCell id="1rvjcukENUylSan08Xyh-48" value="&lt;font style=&quot;font-size: 15px;&quot; face=&quot;Times New Roman&quot;&gt;&lt;i&gt;K&lt;/i&gt;&lt;sub&gt;0&lt;/sub&gt;&lt;/font&gt;" style="text;html=1;strokeColor=none;fillColor=none;align=center;verticalAlign=middle;whiteSpace=wrap;rounded=0;fontSize=20;" vertex="1" parent="1">
          <mxGeometry x="1017.5" y="732.5" width="60" height="30" as="geometry" />
        </mxCell>
        <mxCell id="1rvjcukENUylSan08Xyh-49" value="&lt;font style=&quot;font-size: 15px;&quot; face=&quot;Times New Roman&quot;&gt;&lt;i&gt;K&lt;/i&gt;&lt;sub&gt;1&lt;/sub&gt;&lt;/font&gt;" style="text;html=1;strokeColor=none;fillColor=none;align=center;verticalAlign=middle;whiteSpace=wrap;rounded=0;fontSize=20;" vertex="1" parent="1">
          <mxGeometry x="1007.5" y="692.5" width="60" height="30" as="geometry" />
        </mxCell>
        <mxCell id="1rvjcukENUylSan08Xyh-50" value="&lt;font style=&quot;font-size: 15px;&quot; face=&quot;Times New Roman&quot;&gt;[&lt;i&gt;C&lt;/i&gt;&lt;sub&gt;in&amp;nbsp;&lt;/sub&gt;&lt;/font&gt;&lt;span style=&quot;font-family: &amp;quot;Times New Roman&amp;quot;; font-size: 15px;&quot;&gt;* &lt;i&gt;r&lt;/i&gt;]&lt;/span&gt;" style="text;html=1;strokeColor=none;fillColor=none;align=center;verticalAlign=middle;whiteSpace=wrap;rounded=0;fontSize=20;" vertex="1" parent="1">
          <mxGeometry x="626.5" y="615" width="105" height="30" as="geometry" />
        </mxCell>
        <mxCell id="1rvjcukENUylSan08Xyh-51" value="&lt;font style=&quot;font-size: 15px;&quot; face=&quot;Times New Roman&quot;&gt;[&lt;i&gt;C&lt;/i&gt;&lt;sub&gt;out&amp;nbsp;&lt;/sub&gt;&lt;/font&gt;&lt;span style=&quot;font-family: &amp;quot;Times New Roman&amp;quot;; font-size: 15px;&quot;&gt;* &lt;i&gt;r&lt;/i&gt;]&lt;/span&gt;" style="text;html=1;strokeColor=none;fillColor=none;align=center;verticalAlign=middle;whiteSpace=wrap;rounded=0;fontSize=20;" vertex="1" parent="1">
          <mxGeometry x="626.5" y="975" width="105" height="30" as="geometry" />
        </mxCell>
        <mxCell id="1rvjcukENUylSan08Xyh-52" value="" style="endArrow=none;html=1;strokeWidth=2;rounded=0;fontFamily=Times New Roman;fontSize=20;dashed=1;" edge="1" parent="1">
          <mxGeometry width="50" height="50" relative="1" as="geometry">
            <mxPoint x="1007.5" y="782.5" as="sourcePoint" />
            <mxPoint x="1007.5" y="642.5" as="targetPoint" />
          </mxGeometry>
        </mxCell>
        <mxCell id="1rvjcukENUylSan08Xyh-53" value="&lt;font style=&quot;font-size: 15px;&quot; face=&quot;Times New Roman&quot;&gt;[&lt;i&gt;C&lt;/i&gt;&lt;sub&gt;in&amp;nbsp;&lt;/sub&gt;&lt;/font&gt;&lt;span style=&quot;font-family: &amp;quot;Times New Roman&amp;quot;; font-size: 15px;&quot;&gt;* &lt;i&gt;r&lt;/i&gt;]&lt;/span&gt;" style="text;html=1;strokeColor=none;fillColor=none;align=center;verticalAlign=middle;whiteSpace=wrap;rounded=0;fontSize=20;" vertex="1" parent="1">
          <mxGeometry x="67.5" y="747.5" width="105" height="30" as="geometry" />
        </mxCell>
        <mxCell id="1rvjcukENUylSan08Xyh-54" value="&lt;font style=&quot;font-size: 15px;&quot; face=&quot;Times New Roman&quot;&gt;[&lt;i&gt;C&lt;/i&gt;&lt;sub&gt;in&amp;nbsp;&lt;/sub&gt;&lt;/font&gt;&lt;span style=&quot;font-family: &amp;quot;Times New Roman&amp;quot;; font-size: 15px;&quot;&gt;* &lt;i&gt;r&lt;/i&gt;]&lt;/span&gt;" style="text;html=1;strokeColor=none;fillColor=none;align=center;verticalAlign=middle;whiteSpace=wrap;rounded=0;fontSize=20;" vertex="1" parent="1">
          <mxGeometry x="207.5" y="747.5" width="105" height="30" as="geometry" />
        </mxCell>
        <mxCell id="1rvjcukENUylSan08Xyh-55" value="&lt;font style=&quot;font-size: 15px;&quot; face=&quot;Times New Roman&quot;&gt;[&lt;i&gt;C&lt;/i&gt;&lt;sub&gt;in&amp;nbsp;&lt;/sub&gt;&lt;/font&gt;&lt;span style=&quot;font-family: &amp;quot;Times New Roman&amp;quot;; font-size: 15px;&quot;&gt;* &lt;i&gt;r&lt;/i&gt;]&lt;/span&gt;" style="text;html=1;strokeColor=none;fillColor=none;align=center;verticalAlign=middle;whiteSpace=wrap;rounded=0;fontSize=20;" vertex="1" parent="1">
          <mxGeometry x="347.5" y="747.5" width="105" height="30" as="geometry" />
        </mxCell>
        <mxCell id="1rvjcukENUylSan08Xyh-56" value="&lt;font style=&quot;font-size: 15px;&quot; face=&quot;Times New Roman&quot;&gt;[&lt;i&gt;C&lt;/i&gt;&lt;sub&gt;in&amp;nbsp;&lt;/sub&gt;&lt;/font&gt;&lt;span style=&quot;font-family: &amp;quot;Times New Roman&amp;quot;; font-size: 15px;&quot;&gt;* &lt;i&gt;r&lt;/i&gt;]&lt;/span&gt;" style="text;html=1;strokeColor=none;fillColor=none;align=center;verticalAlign=middle;whiteSpace=wrap;rounded=0;fontSize=20;" vertex="1" parent="1">
          <mxGeometry x="587.5" y="747.5" width="105" height="30" as="geometry" />
        </mxCell>
        <mxCell id="1rvjcukENUylSan08Xyh-57" value="" style="shape=cube;whiteSpace=wrap;html=1;boundedLbl=1;backgroundOutline=1;darkOpacity=0.05;darkOpacity2=0.1;" vertex="1" parent="1">
          <mxGeometry x="857.5" y="672.5" width="110" height="80" as="geometry" />
        </mxCell>
        <mxCell id="1rvjcukENUylSan08Xyh-58" value="" style="shape=curlyBracket;whiteSpace=wrap;html=1;rounded=1;flipH=1;fontFamily=Times New Roman;fontSize=15;direction=north;" vertex="1" parent="1">
          <mxGeometry x="107.5" y="782.5" width="820" height="20" as="geometry" />
        </mxCell>
        <mxCell id="1rvjcukENUylSan08Xyh-59" value="&lt;font style=&quot;font-size: 15px;&quot; face=&quot;Times New Roman&quot;&gt;&lt;i&gt;C&lt;/i&gt;&lt;sub&gt;out&lt;/sub&gt;&lt;/font&gt;" style="text;html=1;strokeColor=none;fillColor=none;align=center;verticalAlign=middle;whiteSpace=wrap;rounded=0;fontSize=20;" vertex="1" parent="1">
          <mxGeometry x="487.5" y="797.5" width="60" height="30" as="geometry" />
        </mxCell>
        <mxCell id="1rvjcukENUylSan08Xyh-60" value="" style="endArrow=none;dashed=1;html=1;dashPattern=1 3;strokeWidth=2;rounded=0;fontFamily=Times New Roman;fontSize=20;" edge="1" parent="1">
          <mxGeometry width="50" height="50" relative="1" as="geometry">
            <mxPoint x="700.5" y="620" as="sourcePoint" />
            <mxPoint x="700.5" y="540" as="targetPoint" />
          </mxGeometry>
        </mxCell>
        <mxCell id="1rvjcukENUylSan08Xyh-61" value="" style="endArrow=none;dashed=1;html=1;dashPattern=1 3;strokeWidth=2;rounded=0;fontFamily=Times New Roman;fontSize=20;" edge="1" parent="1">
          <mxGeometry width="50" height="50" relative="1" as="geometry">
            <mxPoint x="700.5" y="540" as="sourcePoint" />
            <mxPoint x="673.0000000000005" y="510" as="targetPoint" />
          </mxGeometry>
        </mxCell>
        <mxCell id="1rvjcukENUylSan08Xyh-62" value="" style="endArrow=none;dashed=1;html=1;dashPattern=1 3;strokeWidth=2;rounded=0;fontFamily=Times New Roman;fontSize=20;" edge="1" parent="1">
          <mxGeometry width="50" height="50" relative="1" as="geometry">
            <mxPoint x="704.5" y="980" as="sourcePoint" />
            <mxPoint x="704.5" y="902.5" as="targetPoint" />
          </mxGeometry>
        </mxCell>
        <mxCell id="1rvjcukENUylSan08Xyh-63" value="" style="endArrow=none;dashed=1;html=1;dashPattern=1 3;strokeWidth=2;rounded=0;fontFamily=Times New Roman;fontSize=20;" edge="1" parent="1">
          <mxGeometry width="50" height="50" relative="1" as="geometry">
            <mxPoint x="701.5" y="897.5" as="sourcePoint" />
            <mxPoint x="687.5" y="882.5" as="targetPoint" />
          </mxGeometry>
        </mxCell>
        <mxCell id="1rvjcukENUylSan08Xyh-64" value="" style="endArrow=none;dashed=1;html=1;dashPattern=1 3;strokeWidth=2;rounded=0;fontFamily=Times New Roman;fontSize=20;" edge="1" parent="1">
          <mxGeometry width="50" height="50" relative="1" as="geometry">
            <mxPoint x="1227.5" y="692.5" as="sourcePoint" />
            <mxPoint x="1227.5" y="752.5" as="targetPoint" />
          </mxGeometry>
        </mxCell>
        <mxCell id="1rvjcukENUylSan08Xyh-65" value="" style="endArrow=none;dashed=1;html=1;dashPattern=1 3;strokeWidth=2;rounded=0;fontFamily=Times New Roman;fontSize=20;" edge="1" parent="1">
          <mxGeometry width="50" height="50" relative="1" as="geometry">
            <mxPoint x="1207.5" y="672.5" as="sourcePoint" />
            <mxPoint x="1227.5" y="692.5" as="targetPoint" />
          </mxGeometry>
        </mxCell>
        <mxCell id="1rvjcukENUylSan08Xyh-66" value="" style="endArrow=none;dashed=1;html=1;dashPattern=1 3;strokeWidth=2;rounded=0;fontFamily=Times New Roman;fontSize=20;" edge="1" parent="1">
          <mxGeometry width="50" height="50" relative="1" as="geometry">
            <mxPoint x="1277.5" y="692.5" as="sourcePoint" />
            <mxPoint x="1277.5" y="752.5" as="targetPoint" />
          </mxGeometry>
        </mxCell>
        <mxCell id="1rvjcukENUylSan08Xyh-67" value="" style="endArrow=none;dashed=1;html=1;dashPattern=1 3;strokeWidth=2;rounded=0;fontFamily=Times New Roman;fontSize=20;" edge="1" parent="1">
          <mxGeometry width="50" height="50" relative="1" as="geometry">
            <mxPoint x="1257.5" y="672.5" as="sourcePoint" />
            <mxPoint x="1277.5" y="692.5" as="targetPoint" />
          </mxGeometry>
        </mxCell>
        <mxCell id="1rvjcukENUylSan08Xyh-68" value="" style="endArrow=none;dashed=1;html=1;dashPattern=1 3;strokeWidth=2;rounded=0;fontFamily=Times New Roman;fontSize=20;" edge="1" parent="1">
          <mxGeometry width="50" height="50" relative="1" as="geometry">
            <mxPoint x="1137.5" y="692.5" as="sourcePoint" />
            <mxPoint x="1137.5" y="752.5" as="targetPoint" />
          </mxGeometry>
        </mxCell>
        <mxCell id="1rvjcukENUylSan08Xyh-69" value="" style="endArrow=none;dashed=1;html=1;dashPattern=1 3;strokeWidth=2;rounded=0;fontFamily=Times New Roman;fontSize=20;" edge="1" parent="1">
          <mxGeometry width="50" height="50" relative="1" as="geometry">
            <mxPoint x="1117.5" y="672.5" as="sourcePoint" />
            <mxPoint x="1137.5" y="692.5" as="targetPoint" />
          </mxGeometry>
        </mxCell>
        <mxCell id="1rvjcukENUylSan08Xyh-70" value="" style="endArrow=none;dashed=1;html=1;dashPattern=1 3;strokeWidth=2;rounded=0;fontFamily=Times New Roman;fontSize=20;" edge="1" parent="1">
          <mxGeometry width="50" height="50" relative="1" as="geometry">
            <mxPoint x="1087.5" y="692.5" as="sourcePoint" />
            <mxPoint x="1087.5" y="752.5" as="targetPoint" />
          </mxGeometry>
        </mxCell>
        <mxCell id="1rvjcukENUylSan08Xyh-71" value="" style="endArrow=none;dashed=1;html=1;dashPattern=1 3;strokeWidth=2;rounded=0;fontFamily=Times New Roman;fontSize=20;" edge="1" parent="1">
          <mxGeometry width="50" height="50" relative="1" as="geometry">
            <mxPoint x="1067.5" y="672.5" as="sourcePoint" />
            <mxPoint x="1087.5" y="692.5" as="targetPoint" />
          </mxGeometry>
        </mxCell>
        <mxCell id="1rvjcukENUylSan08Xyh-72" value="" style="endArrow=none;dashed=1;html=1;dashPattern=1 3;strokeWidth=2;rounded=0;fontFamily=Times New Roman;fontSize=20;" edge="1" parent="1">
          <mxGeometry width="50" height="50" relative="1" as="geometry">
            <mxPoint x="947.5" y="692.5" as="sourcePoint" />
            <mxPoint x="947.5" y="752.5" as="targetPoint" />
          </mxGeometry>
        </mxCell>
        <mxCell id="1rvjcukENUylSan08Xyh-73" value="" style="endArrow=none;dashed=1;html=1;dashPattern=1 3;strokeWidth=2;rounded=0;fontFamily=Times New Roman;fontSize=20;" edge="1" parent="1">
          <mxGeometry width="50" height="50" relative="1" as="geometry">
            <mxPoint x="927.5" y="672.5" as="sourcePoint" />
            <mxPoint x="947.5" y="692.5" as="targetPoint" />
          </mxGeometry>
        </mxCell>
        <mxCell id="1rvjcukENUylSan08Xyh-74" value="" style="endArrow=none;dashed=1;html=1;dashPattern=1 3;strokeWidth=2;rounded=0;fontFamily=Times New Roman;fontSize=20;" edge="1" parent="1">
          <mxGeometry width="50" height="50" relative="1" as="geometry">
            <mxPoint x="897.5" y="692.5" as="sourcePoint" />
            <mxPoint x="897.5" y="752.5" as="targetPoint" />
          </mxGeometry>
        </mxCell>
        <mxCell id="1rvjcukENUylSan08Xyh-75" value="" style="endArrow=none;dashed=1;html=1;dashPattern=1 3;strokeWidth=2;rounded=0;fontFamily=Times New Roman;fontSize=20;" edge="1" parent="1">
          <mxGeometry width="50" height="50" relative="1" as="geometry">
            <mxPoint x="877.5" y="672.5" as="sourcePoint" />
            <mxPoint x="897.5" y="692.5" as="targetPoint" />
          </mxGeometry>
        </mxCell>
        <mxCell id="1rvjcukENUylSan08Xyh-76" value="" style="endArrow=none;dashed=1;html=1;dashPattern=1 3;strokeWidth=2;rounded=0;fontFamily=Times New Roman;fontSize=20;" edge="1" parent="1">
          <mxGeometry width="50" height="50" relative="1" as="geometry">
            <mxPoint x="807.5" y="692.5" as="sourcePoint" />
            <mxPoint x="807.5" y="752.5" as="targetPoint" />
          </mxGeometry>
        </mxCell>
        <mxCell id="1rvjcukENUylSan08Xyh-77" value="" style="endArrow=none;dashed=1;html=1;dashPattern=1 3;strokeWidth=2;rounded=0;fontFamily=Times New Roman;fontSize=20;" edge="1" parent="1">
          <mxGeometry width="50" height="50" relative="1" as="geometry">
            <mxPoint x="787.5" y="672.5" as="sourcePoint" />
            <mxPoint x="807.5" y="692.5" as="targetPoint" />
          </mxGeometry>
        </mxCell>
        <mxCell id="1rvjcukENUylSan08Xyh-78" value="" style="endArrow=none;dashed=1;html=1;dashPattern=1 3;strokeWidth=2;rounded=0;fontFamily=Times New Roman;fontSize=20;" edge="1" parent="1">
          <mxGeometry width="50" height="50" relative="1" as="geometry">
            <mxPoint x="757.5" y="692.5" as="sourcePoint" />
            <mxPoint x="757.5" y="752.5" as="targetPoint" />
          </mxGeometry>
        </mxCell>
        <mxCell id="1rvjcukENUylSan08Xyh-79" value="" style="endArrow=none;dashed=1;html=1;dashPattern=1 3;strokeWidth=2;rounded=0;fontFamily=Times New Roman;fontSize=20;" edge="1" parent="1">
          <mxGeometry width="50" height="50" relative="1" as="geometry">
            <mxPoint x="737.5" y="672.5" as="sourcePoint" />
            <mxPoint x="757.5" y="692.5" as="targetPoint" />
          </mxGeometry>
        </mxCell>
        <mxCell id="1rvjcukENUylSan08Xyh-80" value="" style="endArrow=none;dashed=1;html=1;dashPattern=1 3;strokeWidth=2;rounded=0;fontFamily=Times New Roman;fontSize=20;" edge="1" parent="1">
          <mxGeometry width="50" height="50" relative="1" as="geometry">
            <mxPoint x="669" y="692.5" as="sourcePoint" />
            <mxPoint x="669" y="752.5" as="targetPoint" />
          </mxGeometry>
        </mxCell>
        <mxCell id="1rvjcukENUylSan08Xyh-81" value="" style="endArrow=none;dashed=1;html=1;dashPattern=1 3;strokeWidth=2;rounded=0;fontFamily=Times New Roman;fontSize=20;" edge="1" parent="1">
          <mxGeometry width="50" height="50" relative="1" as="geometry">
            <mxPoint x="649" y="672.5" as="sourcePoint" />
            <mxPoint x="669" y="692.5" as="targetPoint" />
          </mxGeometry>
        </mxCell>
        <mxCell id="1rvjcukENUylSan08Xyh-82" value="" style="endArrow=none;dashed=1;html=1;dashPattern=1 3;strokeWidth=2;rounded=0;fontFamily=Times New Roman;fontSize=20;" edge="1" parent="1">
          <mxGeometry width="50" height="50" relative="1" as="geometry">
            <mxPoint x="617.5" y="692.5" as="sourcePoint" />
            <mxPoint x="617.5" y="752.5" as="targetPoint" />
          </mxGeometry>
        </mxCell>
        <mxCell id="1rvjcukENUylSan08Xyh-83" value="" style="endArrow=none;dashed=1;html=1;dashPattern=1 3;strokeWidth=2;rounded=0;fontFamily=Times New Roman;fontSize=20;" edge="1" parent="1">
          <mxGeometry width="50" height="50" relative="1" as="geometry">
            <mxPoint x="597.5" y="672.5" as="sourcePoint" />
            <mxPoint x="617.5" y="692.5" as="targetPoint" />
          </mxGeometry>
        </mxCell>
        <mxCell id="1rvjcukENUylSan08Xyh-84" value="" style="endArrow=none;dashed=1;html=1;dashPattern=1 3;strokeWidth=2;rounded=0;fontFamily=Times New Roman;fontSize=20;" edge="1" parent="1">
          <mxGeometry width="50" height="50" relative="1" as="geometry">
            <mxPoint x="427.5" y="692.5" as="sourcePoint" />
            <mxPoint x="427.5" y="752.5" as="targetPoint" />
          </mxGeometry>
        </mxCell>
        <mxCell id="1rvjcukENUylSan08Xyh-85" value="" style="endArrow=none;dashed=1;html=1;dashPattern=1 3;strokeWidth=2;rounded=0;fontFamily=Times New Roman;fontSize=20;" edge="1" parent="1">
          <mxGeometry width="50" height="50" relative="1" as="geometry">
            <mxPoint x="407.5" y="672.5" as="sourcePoint" />
            <mxPoint x="427.5" y="692.5" as="targetPoint" />
          </mxGeometry>
        </mxCell>
        <mxCell id="1rvjcukENUylSan08Xyh-86" value="" style="endArrow=none;dashed=1;html=1;dashPattern=1 3;strokeWidth=2;rounded=0;fontFamily=Times New Roman;fontSize=20;" edge="1" parent="1">
          <mxGeometry width="50" height="50" relative="1" as="geometry">
            <mxPoint x="377.5" y="692.5" as="sourcePoint" />
            <mxPoint x="377.5" y="752.5" as="targetPoint" />
          </mxGeometry>
        </mxCell>
        <mxCell id="1rvjcukENUylSan08Xyh-87" value="" style="endArrow=none;dashed=1;html=1;dashPattern=1 3;strokeWidth=2;rounded=0;fontFamily=Times New Roman;fontSize=20;" edge="1" parent="1">
          <mxGeometry width="50" height="50" relative="1" as="geometry">
            <mxPoint x="357.5" y="672.5" as="sourcePoint" />
            <mxPoint x="377.5" y="692.5" as="targetPoint" />
          </mxGeometry>
        </mxCell>
        <mxCell id="1rvjcukENUylSan08Xyh-88" value="" style="endArrow=none;dashed=1;html=1;dashPattern=1 3;strokeWidth=2;rounded=0;fontFamily=Times New Roman;fontSize=20;" edge="1" parent="1">
          <mxGeometry width="50" height="50" relative="1" as="geometry">
            <mxPoint x="287.5" y="692.5" as="sourcePoint" />
            <mxPoint x="287.5" y="752.5" as="targetPoint" />
          </mxGeometry>
        </mxCell>
        <mxCell id="1rvjcukENUylSan08Xyh-89" value="" style="endArrow=none;dashed=1;html=1;dashPattern=1 3;strokeWidth=2;rounded=0;fontFamily=Times New Roman;fontSize=20;" edge="1" parent="1">
          <mxGeometry width="50" height="50" relative="1" as="geometry">
            <mxPoint x="267.5" y="672.5" as="sourcePoint" />
            <mxPoint x="287.5" y="692.5" as="targetPoint" />
          </mxGeometry>
        </mxCell>
        <mxCell id="1rvjcukENUylSan08Xyh-90" value="" style="endArrow=none;dashed=1;html=1;dashPattern=1 3;strokeWidth=2;rounded=0;fontFamily=Times New Roman;fontSize=20;" edge="1" parent="1">
          <mxGeometry width="50" height="50" relative="1" as="geometry">
            <mxPoint x="237.5" y="692.5" as="sourcePoint" />
            <mxPoint x="237.5" y="752.5" as="targetPoint" />
          </mxGeometry>
        </mxCell>
        <mxCell id="1rvjcukENUylSan08Xyh-91" value="" style="endArrow=none;dashed=1;html=1;dashPattern=1 3;strokeWidth=2;rounded=0;fontFamily=Times New Roman;fontSize=20;" edge="1" parent="1">
          <mxGeometry width="50" height="50" relative="1" as="geometry">
            <mxPoint x="217.5" y="672.5" as="sourcePoint" />
            <mxPoint x="237.5" y="692.5" as="targetPoint" />
          </mxGeometry>
        </mxCell>
        <mxCell id="1rvjcukENUylSan08Xyh-92" value="" style="endArrow=none;dashed=1;html=1;dashPattern=1 3;strokeWidth=2;rounded=0;fontFamily=Times New Roman;fontSize=20;" edge="1" parent="1">
          <mxGeometry width="50" height="50" relative="1" as="geometry">
            <mxPoint x="147.5" y="692.5" as="sourcePoint" />
            <mxPoint x="147.5" y="752.5" as="targetPoint" />
          </mxGeometry>
        </mxCell>
        <mxCell id="1rvjcukENUylSan08Xyh-93" value="" style="endArrow=none;dashed=1;html=1;dashPattern=1 3;strokeWidth=2;rounded=0;fontFamily=Times New Roman;fontSize=20;" edge="1" parent="1">
          <mxGeometry width="50" height="50" relative="1" as="geometry">
            <mxPoint x="127.5" y="672.5" as="sourcePoint" />
            <mxPoint x="147.5" y="692.5" as="targetPoint" />
          </mxGeometry>
        </mxCell>
        <mxCell id="1rvjcukENUylSan08Xyh-94" value="" style="endArrow=none;dashed=1;html=1;dashPattern=1 3;strokeWidth=2;rounded=0;fontFamily=Times New Roman;fontSize=20;" edge="1" parent="1">
          <mxGeometry width="50" height="50" relative="1" as="geometry">
            <mxPoint x="97.5" y="692.5" as="sourcePoint" />
            <mxPoint x="97.5" y="752.5" as="targetPoint" />
          </mxGeometry>
        </mxCell>
        <mxCell id="1rvjcukENUylSan08Xyh-95" value="" style="endArrow=none;dashed=1;html=1;dashPattern=1 3;strokeWidth=2;rounded=0;fontFamily=Times New Roman;fontSize=20;" edge="1" parent="1">
          <mxGeometry width="50" height="50" relative="1" as="geometry">
            <mxPoint x="77.5" y="672.5" as="sourcePoint" />
            <mxPoint x="97.5" y="692.5" as="targetPoint" />
          </mxGeometry>
        </mxCell>
      </root>
    </mxGraphModel>
  </diagram>
</mxfile>
